<?xml version="1.0" encoding="UTF-8"?>
<svg width="1026.1" height="743.47" viewBox="-6148 0 11139.623 8267.9999" xmlns="http://www.w3.org/2000/svg">
 <g transform="translate(-148.18 -4.78)">
  <text x="-2623" y="127" fill="#888" font-family="humanist531bt" font-size="139">10</text>
  <text x="-3373" y="122" fill="#888" font-family="humanist531bt" font-size="139">20</text>
  <text x="-4249" y="122" fill="#888" font-family="humanist531bt" font-size="139">30</text>
  <text x="-1913" y="126" fill="#888" font-family="humanist531bt" font-size="139">0</text>
  <text x="-1260" y="126" fill="#888" font-family="humanist531bt" font-size="139">10</text>
  <text x="-550" y="120" fill="#888" font-family="humanist531bt" font-size="139">20</text>
  <text x="193" y="127" fill="#888" font-family="humanist531bt" font-size="139">30</text>
  <text x="1017" y="126" fill="#888" font-family="humanist531bt" font-size="139">40</text>
  <text x="2026" y="128" fill="#888" font-family="humanist531bt" font-size="139">50</text>
  <text x="5104" y="4869" fill="#888" font-family="humanist531bt" font-size="139">50</text>
  <text x="3258" y="133" fill="#888" font-family="humanist531bt" font-size="139">60</text>
  <text x="5104" y="2107" fill="#888" font-family="humanist531bt" font-size="139">60</text>
  <text x="4906" y="123" fill="#888" font-family="humanist531bt" font-size="139">70</text>
  <g transform="matrix(.66226 -.74928 .74928 .66226 980.05 -2564.5)">
   <text y="4161" fill="#888" font-family="humanist531bt" font-size="139">60</text>
  </g>
  <g transform="matrix(.77589 -.63087 .63087 .77589 2418 -847.66)">
   <text y="4161" fill="#888" font-family="humanist531bt" font-size="139">50</text>
  </g>
  <g transform="matrix(.87247 -.48867 .48867 .87247 3023.2 1573.6)">
   <text y="4161" fill="#888" font-family="humanist531bt" font-size="139">40</text>
  </g>
  <g transform="matrix(.8757 -.48285 .48285 .8757 3092.4 4165.1)">
   <text y="4161" fill="#888" font-family="humanist531bt" font-size="139">30</text>
  </g>
  <text x="4594" y="8245" fill="#888" font-family="humanist531bt" font-size="139">40</text>
  <text x="2723" y="8246" fill="#888" font-family="humanist531bt" font-size="139">30</text>
  <text x="878" y="8247" fill="#888" font-family="humanist531bt" font-size="139">20</text>
  <text x="-962" y="8236" fill="#888" font-family="humanist531bt" font-size="139">10</text>
  <text x="-2754" y="8243" fill="#888" font-family="humanist531bt" font-size="139">0</text>
  <text x="-4618" y="8251" fill="#888" font-family="humanist531bt" font-size="139">10</text>
  <text x="-6143" y="6521" fill="#888" font-family="humanist531bt" font-size="139">20</text>
  <g transform="matrix(.93595 .35214 -.35214 .93595 -4645.8 2340.7)">
   <text y="4161" fill="#888" font-family="humanist531bt" font-size="139">40</text>
  </g>
  <g transform="matrix(.8831 .46918 -.46918 .8831 -4164.7 78.224)">
   <text y="4161" fill="#888" font-family="humanist531bt" font-size="139">50</text>
  </g>
  <text x="-6137" y="2833" fill="#888" font-family="humanist531bt" font-size="139">30</text>
  <text x="-6131" y="829" fill="#888" font-family="humanist531bt" font-size="139">40</text>
  <text x="-5312" y="121" fill="#888" font-family="humanist531bt" font-size="139">40</text>
  <g transform="matrix(.73984,.67278,-.67278,.73984,-3322.1,-2045.7)">
   <text y="4161" fill="#888" font-family="humanist531bt" font-size="139">60</text>
  </g>
 </g>
 <g transform="matrix(.96345 0 0 .96345 -268.97 159.27)" fill="#b5def8">
  <path d="m5224 5541c-4-9-9-19-13-28-15-32-39-73-48-106-2-8 3-21 12-23 13-4 18 10 25 17l4 1c13-24-15-47-14-70 1-14 18-14 14-31-4-16-26-11-33-36-5-19-6-39-10-59-3-11-7-23-11-34-3-6-11-18-12-24-1-4 1-15 3-19 3-7 33-54 38-59 4-4 17-8 22-10 8-4 28-13 35-14 5-1 19 1 22 0 6-2 6-11 3-16-4-8-27-23-36-26-7-2-16-1-24-2-9-1-18-5-27-5-23 0-42 51-80 33-11-6-6-21-16-25-11-6-27-3-40-8-23-9-31-30-49-45-14-12-33-25-49-35-3-1-5-2-8-3-21-10-41-23-62-32-5-2-13-3-19-4-8-1-14 3-22 3-3 0-25-5-27-6-18-8-30-33-47-44-11-6-36-6-45-12-9-5-15-16-24-21-8-4-30-2-41-12-6-5-4-19-18-26-15-8-37-6-46-25-6-14-6-32-13-46-3-5-12-10-15-16-2-3-14-37-14-42-3-17-1-48-6-62-1-4-7-11-10-13h-6c-7 15 7 63 10 81 0 2 2 14 0 15-3 1-12-6-14-8-3-3-5-11-7-15 1-9 4-24 0-33-7-16-25-27-37-40-8-9-15-21-23-30l-6-1c-4 3-10 11-13 12-12 4-15-23-48-17-7 1-14 8-21 7-2-1-14-3-15-4-16-10-19-31-15-48 1-7 12-51 14-55 4-5 8 3 8-11 2-46-2-92-4-138-1-18 4-38-3-55-3-6-8-11-11-17l1-5 4-3c9 0 19 4 28 4l3-4c0-3-2-11-1-13 3-11 25-26 34-36 0-1 14-61 18-71 12-9 20 0 34 1l4-3c-4-19-27-21-41-28l-3-5c0-3 1-5 2-8 5-2 12-1 17-6 6-6 9-18 15-25 3-3 13-9 14-12 1-2 1-5 1-7-15-23-10-18 8-28v-3c-3-3-15-7-16-11-2-6 4-20 5-26 0-3-1-6-2-8-1-4-2-8 2-13 2-3 14-11 18-15 3-3 5-8 9-11 12-10 25-12 32-29 9-17 14-39 20-57 5-18 7-38 14-54 5-11 15-19 21-30 24-41 22-55 59-92 21-22 41-4 56-5 10-1 19-6 28-7 6-1 29-1 31-1l5-3c8-3 23-49 29-59 4-8 16-14 23-18 6-5 19-17 26-19s30 0 39 0c1 0 6 7 7 8 6 4 18 8 22 13 4 6 3 24 5 32 10 33 37 17 50 56 6 18 10 41 12 60 5 31 4 64 10 94 0 3 3 8 5 10 20 30 49-15 73-8l4 5c-4 26-31 47-53 58-17 9-36 11-53 20-14 6-28 16-39 25-7 4-11 10-18 15-8 6-19 10-26 17s-10 18-16 25c-6 8-18 10-17 22 1 11 5 27 9 37 2 6 11 16 11 21 2 9-9 16-12 24-6 14-6 40 10 46 11 5 24 6 35 10 6 3 12 12 21 9 13-5 15-22 34-16l2 4c0 3-2 9-5 11-4 4-13 5-18 9-6 5-13 23-28 27-11 4-25-1-37 1-3 1-9 5-12 7-9 6-18 17-29 21-8 4-14-3-29 9-2 2-5 5-6 8-5 16 1 47 18 55 36 16 71-24 95-12 17 8 12 25 31 37 10 7 22 11 33 17 10 6 19 14 29 19 11 4 22 5 33 9 2 1 5 2 7 4 4 4 16 21 19 26 5 11 9 44 11 46 25 5 36-29 53-38 6 1 6 5 10 8 7 4 16 5 23 9 9 5 16 12 25 16 3 2 9 4 12 4 13-6 10-24 24-30 5 1 11 5 16 5 9-5 8-9 14-15 7-8 24-21 37-20v1310c-10-12-20-26-28-39-8-12-14-25-19-39z"/>
  <path d="m-3749 7779c5 5 10 8 20 8 3-1 12-3 14-5 2-3 2-14 5-15 4-2 12 5 14 4 5-3 15-27 21-33 7-7 31-27 40-31 20-10 50 8 66 5 9-1 36-16 45-21 6-5 16-20 22-22 6-1 20 7 27 7 8 0 16-5 24-5 6 0 34 3 40 4 3 1 6 6 10 7 10 3 22 0 32 2 8 1 25 14 26 14 3 0 19-6 23-7 14-4 63-1 75 3 4 2 8 15 11 18 2 1 13 3 15 3 16-2 16-15 26-23 4-3 18-9 23-10 7-1 26 3 30 10 2 4 2 9 5 13 3 5 15 15 21 16 17-9 19-20 31-32 5-5 17-10 20-15 12-19 15-44 26-64 3-6 15-17 20-21 6-3 13-6 19-7 4-1 13 2 16 0 6-4 1-22 40-27 21-3 23 13 31 11 5-2 8-9 16-9 5 0 11 3 16 4 6 0 32-2 36-7 1-1 5-9 6-11 1-3 3-14 1-16 0-2-4-3-5-3-9 0-2 21-24 16-8-10 14-26 21-31 14-15 16-42 23-62 4-10 15-7 19-13 3-5 6-26 9-30 3-2 12-1 15-3 3-3 8-17 12-21 4-5 24-13 31-14 6-1 12 2 18 2l2-2c2-4 2-10 4-14 6-3 13 2 19 2 6-3 5-10 9-12 7-4 20 2 24-8 8-16-29-34-38-41-13-10-37-48-39-63 0-3 1-6 1-9-2-12-6-24-6-35 1-32 19-79 40-103 15-17 33-34 49-49 4-4 9-7 13-11 18-17 36-36 51-55 5-4 8-11 11-16 6-12 16-35 32-31 2 3 2 10 3 12 6 6 32-16 29-26-6-19-33-15-16-36 7-9 35-31 46-34 9-2 18-1 26-4 9-2 16-10 25-13 43-13 89-2 131-18 20-8 18-32 36-42 14-8 31-11 46-18 10-4 24-10 32-16 2-2 2-3 4-4 15-10 57-21 68-33 4-5 14-20 15-26 2-5 2-23 0-28-2-7-11-10-13-17 0-1 1-16 1-18 5-12 19-1 21-2 2 0 6-10 5-12-2-6-13-8-16-11-2-2-7-17-9-20-4-8-15-30-16-38 0-10 9-31 8-39-1-5-10-12-13-18 2-9 41-68 48-77 3-3 12-8 15-8 6-1 16 5 21 3 20-10 46-58 77-64 27-5 21 26 40 27 16 6 52 2 57 5 3 2 1 13 1 16 47 18 23 1 48-8 3-1 11 0 14-3 3-4-3-24 6-23 9 0 40 20 33 27-2 2-37 11-38 13 0 0 12 8 13 8 2 0 5-2 7-2 2-1 33-1 35 0 1 0 2 1 3 2 11 14-2 30 5 33s35 0 43 4c3 1 3 7 5 9s12 4 14 5c1 2 3 11 11 10 3 0 7-6 10-7 9-1 33 10 34 10 4-1 9-11 12-13 12-6 18 7 24 4 3-2 9-15 23-18 7-1 14 4 21 3 1-3 5-14 5-17s-5-7-4-10c0-2 7-6 9-8 4-4 5-14 10-18 7-6 22-2 28-10 5-7 6-19 17-21 5-1 11 4 16 1 1-4 7-28 8-29 3-3 23 6 30 4 7-3 9-10 13-16 3-3 7-5 14-4 9-1 21-1 31-4 11-4 51-19 59-26 4-4 5-20 7-26s11-23 16-27c5-5 23-8 27-13 4-4 3-16 6-22 8-14 31-29 48-28 7 1 42 7 48 10 7 3 6 14 19 18 3 1 4-7 5-9 3-2 12-1 14 1 13 7 29 29 42 40 7 5 15 8 22 13 4 3 5 6 10 6 2-2 4-9 5-10 5-4 17 9 21 11s10 4 16 6c9 4 18 11 20 13 10 12 8 24 13 37 0 2 2 4 3 6 1 6-1 14 0 20 1 8 3 28 6 35 4 8 14 15 19 23 9 12 14 27 23 39 1 2 3 2 3 4 8 17-8 44-6 52 2 5 23 1 27 2 3 1 10 7 10 10 1 3-4 12-3 18 10 2 22 2 31 6 5 2 42 50 45 57 7 12-8 12-11 16-3 5 1 13 5 15 10 5 14-7 21-8 5-1 22 3 27 5 8 4 18 8 25 14 5 4 20 18 24 24 6 9 4 25 16 30 8 4 18 2 25 5 3 1 6 7 8 9 9 7 22 9 27 21 2 5 1 17 4 22 2 3 11 6 15 9 3 2 4 7 7 9 7 4 16 5 22 9 4 3 13 11 15 14 3 5 8 21 9 23 4 4 6 0 9-1 2 0 14 1 16 2 3 1 6 5 10 6 7 3 18 2 25 6 6 3 12 27 18 32 3 2 12 0 15-1 8-4 14-12 23-15 4-2 16-2 20-1 10 2 19 11 29 12 8 0 12-10 28-3 2 1 4 4 6 5 20 16 28 27 39 50 1 3 2 7 3 9 5 9 13 13 17 22 18 4 23-5 31-6 6-1 29 5 32 10 2 3 0 9-1 11-6 14-17 17-19 34l2 3c21 4 62-39 75-29 3 2 6 11 8 14 3 3 8 4 11 7 0 7 13 19 16 26 6 13-8 30-6 40 0 4 10 11 13 12 10 4 22 0 31 5 3 2 14 9 16 12s0 12 2 14c3 3 18 6 22 5 7-2 21-31 44-18 6 7 15 17 18 26 2 6 3 11 6 17 1 3 4 6 5 10 4 12 2 25 6 37 6 20 30 28 38 49 12 26 16 56 28 83 3 5 14 11 16 16 3 9 0 46-8 51-5 3-19-1-25 1-5 1-25 14-22 20 1 3 13 7 15 10 6 9-10 52-15 61-3 7-15 18-22 20-8 17-5 49 13 59 5 3 23 6 29 7 4 0 27-3 29-5 4-2 9-49 14-59 10-17 54-46 58-60 6-22-18-54-8-67 2-2 6-1 8-2 2-2 5-12 7-16 4-5 22-24 28-27 25-16 48 13 61-19 5-13-5-12-9-21-3-7-3-17-4-24-1-6-4-11-5-16-1-11 6-23-1-32-5 0-8-7-12-9-13-8-31-10-44-18-4-3-7-12-11-13-5-3-27-1-35-2-9-10-16-29-11-42 3-8 15-13 17-30 1-10-4-30-2-40 4-11 24-43 30-53 6-11 16-31 27-36 6-3 55-9 46 5-1 2-15 10-19 14 3 7 47 14 56 15 18 1 38-4 55 5 5 3 16 13 20 17 23 26-6 42 44 63 6 3 36 12 40 7 2-2 1-42 1-48-1-12-4-37-8-47-6-15-34-40-48-47-6-3-16-5-21-9-6-5-7-15-13-20-4-3-8-3-12-6-6-4-8-11-14-15-26-15-62-12-88-26-13-6-19-17-38-25-52-21-108-34-163-43-8-2-38-21-45-28-27-28 12-39 24-53 2-4 7-23 8-28 0-4-1-11-4-14-3-4-29-7-35-7-16 1-31 8-47 10-20 3-40 6-60 6-11-1-21-3-31-6-14-1-37-13-51-21-13-28-17-20-41-31-2-1-14-13-19-16-6-4-14-6-21-10-5-4-9-10-14-14-12-11-28-21-36-36-5-9-5-21-10-31-2-3-5-6-7-9-5-8-7-19-10-28-4-8-9-17-13-25-3-10-4-20-7-30-3-11-16-49-23-57-6-7-23-23-30-28-13-8-31-11-44-20-34-20-35-35-78-48-17-5-37-16-50-30-5-5-6-12-11-17-1-2-2-2-4-3-2-3-9-12-9-14-6-17-11-47-13-65-3-16-7-56-2-64 4-4 3-4 15 2 1 0 5 2 6 2 6 0 20-14 17-21-1-2-28-24-32-29-2-3-25-45-26-47-1-5-1-19 0-24 1-1 28-27 31-32 3-3 4-8 8-11 3-2 10-2 12 2 3 7-13 19-13 29l4 3c12 0 26-21 35-29 3-3 8-6 12-9 2-2 4-6 6-7 10-6 26-8 35-15 2-1 3-6 3-8 0-3 2-10 3-12 1-1 4-2 5-2 5 0 10 1 15 0 4 0 14-2 17-1 7 1 5 9 6 12 17 5 16-11 22-18s18 5 24 8c2 1 10 3 11 5 2 4 4 17 4 21-1 7-19 22-26 25-18 9-12 32-5 46 3 7 9 12 13 19 9 17 14 36 24 53 2 5 22 33 30 25 5-5 27-53 31-63 5-14 4-44 18-54 20-1 31 4 46 17 8 6 13 17 22 23 2 1 18 7 20 6h2c18 13-1 67 14 89 2 3 8 5 10 7 3 3 4 6 6 9 7 8 15 14 22 23 2 3 4 8 6 11 7 6 45 19 47 20 1 1 1 2 2 3-4 22-33 10-30 26 8 53 45 57 85 80 3 2 6 5 8 7 5 5 23 32 25 37 1 4-1 13 0 16 2 2 9 2 12 3 24 2 42-19 63-19 15 0 44 15 60 19 5 1 13 1 16 3 12 7 19 21 30 27 13 9 30 11 44 18 17 9 21 26 39 37 6 4 12 5 14 13-1 1-3 2-5 2-1 0-7-2-9-3-6-2-12-3-18-5-17-6-34-15-52-14-2 0-7 3-8 4l2 4c3 1 6 1 9 2 4 2 8 4 13 5 20 5 42 6 62 16 3 1 29 21 32 13 0 0-3-8-3-12 2-2 8-2 10-2 5 0 16 8 20 11 6 2 19 7 22 10s5 11 8 13c7 4 19 3 26 8 12 7 26 31 35 35 15 7 13-2 24-5 15-2 18 14 28 18 6 3 20 0 25 3s9 23 17 28c7 5 17 5 24 10 12 7 12 16 19 26 6 10 24 18 35 20 8 1 32 5 36 13 0 2-2 6-2 9 1 10 6 21 7 31-3 8-9 6-13 13 0 1 2 11 2 13 0 8-7 28-5 34 1 4 15 3 16 11 0 4-6 26-6 33-2 22 13 29 19 45 3 10-8 8-11 13s-11 35-13 42c0 3 0 9 1 12 6 10 48 43 29 56-6 0-12-2-21-2 1 24 12 17 23 26 1 2 1 5 3 6 13 8 44 14 61 22 21 11 17 27 24 35 4 4 11 2 16 8 1 7-2 16 0 23 1 9 23 13 31 17 3 4 3 6 2 11 0 3-1 12 0 14 2 3 11 5 14 8 7 6 6 17 10 25 2 3 11 12 15 13 5 3 23 2 28 5 2 1 2 9 4 12 4 8 19 12 27 16 9 6 8 11 14 16l5-1c3-3 4-9 7-12 6-6 23-1 30 1 10 4 20-6 30 0 7 3 5 20 8 25 1 2 2 3 3 4 0 1-1 6-2 7 0 1-4 1-5 1-13 0-51-10-58 7-2 4-2 13 1 16 5 2 13 2 18 4 19 11 16 23 26 37 10 15 16 9 22 31 2 6 3 20 10 24 11 6 10-20 24-24 4-1 20 0 24 2 5 1 12 11 18 9 2-1 4-6 7-7 8-3 18-2 27-5 5-2 9-7 13-10 6-3 12-5 18-8 20-8 41 8 43 8 3 0 10-7 13-7 4-1 15 2 18-1 3-2 2-16 4-18 4-6 9 4 11 5 8 3 6 7 12 11 8 5 19-11 25-16l3 1c2 3 3 12 6 14 2 2 9 2 11 4 2 1 3 7 5 7 5 2 28-3 36-2 7 1 23 7 30 10l1 3c-1 5-2 15-8 16 0 0-17 1-23 3-3 1-19 10-16 14 1 2 14 5 17 7 0 4-5 10-8 12-6 5-18 3-25 0-5-3-9-8-14-11-16-8-35-14-53-15-13-2-27-3-40-6-4-1-15-5-19-8-4-2-8-9-12-11-11-4-32 5-40 12-11 11-3 20-25 32-18 11-29-3-38 8-4 5-1 31-7 41-7 10-23 12-23 26 0 3 1 9 3 11 6 7 20 8 25 12 6 3 9 11 14 14 9 5 20 5 29 10 14 8 29 33 36 48 6 7 4 18 1 26-3 9-10 15-8 25 0 3 6 16 9 19 5 7 14 9 20 15 7 7 1 22 5 27 3 4 15 3 20 6 4 1 7 7 13 6 2 0 4-4 4-6 0-4-3-9-3-13-1-3 0-26 0-28 3-8 26-17 33-9 3 2 1 12 3 16 4 11 31 6 41 24 4 6 12 30 13 36 1 7-5 18-4 22 0 5 10 5 13 8 1 1 3 4 4 4h3c2-12 1-24 3-36 2-11 7-39 14-46 2-2 9-7 12-7 4 0 16 5 19 8 6 4 7 12 13 16 2 2 5 1 8 3 6 5 10 18 16 23 4 2 14 1 16 3 1 1 0 5 2 7 4 8 23 7 22 1 0-4-21-15-25-30-3-11 0-22-3-33-2-6-8-11-10-17-3-6-2-13-5-19-5-10-13-19-20-27-2-2-5-4-6-6-3-4-5-8-7-12-6-8-14-14-20-23-5-10-18-36-21-46 0-2 0-7 1-9s8-5 10-5c5 0 56 13 58 15 3 3-2 10-2 13 0 5 8 15 14 13 1 0 7-8 8-9 2-6-2-10 4-14 6-5 24-12 31-11 1 0 3 1 4 1 2 0 4-4 4-5-1-6-17-15-19-19-3-5 0-17-9-18-2 0-8 2-9 4-2 4 6 9 6 10 1 1-4 9-5 9-2 1-12-4-14-6-4-4-17-26-20-33-2-4-3-12-5-15-3-5-19-4-21-8-2-3 3-15 5-18 2-4 7-7 11-9 10-5 60-37 69-29 2 1 2 8 4 10s13 4 16 7c5 4 9 17 14 20s20 1 26 4c3 1 13 10 15 13 1 2 1 5 3 6 1 1 6 3 7 2 14-4 0-48-4-57-3-7-15-22-16-28s7-19 9-25c-2-4-6-10-11-12-17-6-41-9-59-12-3-1-11-6-16-10-3-3-6-11-9-12-10-6-20 6-33-1-3-2-13-9-15-12-2-4 5-15 0-18-2-1-14-3-16-2-5 2-9 10-14 11-2 1-8 1-9 0-4-3-5-18-12-22-11-6-20 6-31 5-6 0-16-8-22-9-8-2-23-1-26-2-2-1 1-8 1-8 1-2 13-5 15-6h6c6-1 32-15 37-21 4-4 10-9 11-15-2-2-8-2-10-4s-4-10-7-13c-4-5-19-13-22-19-2-3-2-14-1-17 2-3 9-5 10-7 1-3 0-10 1-14l3-1c5 0 12 0 18 2 4 1 24 15 27 19 1 1 1 6 0 8-2 7-20 19-17 24 1 1 7 3 9 2 3-1 27-19 29-23 1-2-1-10-2-12s-3-3-5-5c-7-11-10-24-20-34-19-20-47-18-66-44-10-14-19-31-28-46-20-12-39-22-41-49-1-19 2-39 0-58 0-6-6-7-3-17 1-3 4-5 6-7 1-1 17-13 18-15 5-7 6-23 18-21 5 0 6 1 8 5 19 30-15 21-10 40 1 3 7 11 10 12 7 4 16 4 23 7 9 4 9 10 24 12 6 0 14-5 19 0l9 12c1 2 1 5 1 7 3 9 12 34 22 34 3 1 6-1 9-2 9-1 20-1 29 0 2 0 19 9 19 2-1-8-38-16-46-19-6-3-13-7-17-11-19-16-15-41 12-41 8 0 18 2 26 4 3 1 7 3 10 5 4 2 10 15 13 19 8 10 25 30 38 26 2-6 1-11 0-16-7-35-31-19-54-42-3-3-5-5-3-10 2-9 15-19 25-20 3 0 15 2 19 3 9 2 32 8 39 12 4 2 7 12 11 16 3 3 14 5 18 2v-5c-6-8-13-17-20-24-24-24-60-7-69-14-3-2-5-6-7-8-8-10 2-14-1-22-3-13-31-14-35-25-5-11 10-22 19-21 5 0 10 1 15 2s21 4 26 2c10-2 30-20 33-30 1-5 0-15 2-19 1-3 10-9 13-11 1-1 3-2 5-3 28-6 13 9 28 14 2 0 8 2 10 1 4 0 33-22 37-26 8-8 10-21 23-25 1 0 5 0 6 1 3 2 1 10 17 10 7-1 13-5 20-5 16 0 34 8 50 4 13-3 25-11 37-13 5 0 22 2 26 3 2 1 6 8 7 11 2 4 12 24 14 25 15 10 49 5 65-1 14-5 28-18 41-21 2-1 8-1 10 0 4 2-1 15-3 17-7 8-32 20-43 29-16 13-35 33-38 54 0 4-1 30 0 31 2 2 5 3 7 3 9-1 19-21 24-29 15-25 29-54 51-74 18-17 41-32 56-51 12-15 19-56 28-74 5-12 29-20 41-24 8-3 17-4 25-8 11-6 18-16 29-22 16-11 25-8 41-13 7-2 16-8 23-9 16-2 13 14 39 5 6-1 18-9 21-15 4-9 7-44 0-51-2-3-18-4-21-3-12 2-25 8-37 8-6-1-17-5-23-7-23-10-47-21-65-39-6-6-10-14-16-21-5-6-13-9-17-17-3-9-1-21-8-29-5-9-12-21-20-29-7-8-18-13-25-21-7-7-12-18-20-25-16-13-24 1-36-5-2-3-2-12-1-16 2-5 8-10 10-16 5-10 8-23 14-32 4-6 12-9 16-13 2-7-1-8-2-14-5-24-12-70-12-94 0-19 11-39 24-52 6-5 22-13 29-14 7 0 14 3 20 4l3-2c14-32 11-43-8-72-1-27-1-55-9-81-4-11-11-23-13-35-4-23 16-50 19-73 1-12-18-12-20-22-3-19 11-30 10-36 0-4-13-11-14-15-3-9 6-28 14-33 4-2 12-1 15 0 4 4 1 11 2 16 2 5 10 11 10 16 1 8-10 19-5 29 5 14 20-19 23-23s17-15 22-18c13-7 20-2 31-18 2-10 5-17 7-27 2-24-21-41-18-56l2-3c12-10 4-28-6-37-3-3-9-4-13-8-4-3-2-10-5-15-2-5-7-8-9-13-3-6-1-13-2-20l-3-6c0-2-1-9-1-10 1-2 2-4 3-5 12-8 11 30 24 29 3-1 9-26 11-30 10-24 23-28 32-43 6-10 20-41 22-51 5-24-43-12-57-42-1-2-1-10 1-12 1-1 11-7 13-7 6-2 21 2 26 6 11 8 21 21 30 32 0-1 1-2 2-4 2-4 5-34 6-41 2-9 6-17 7-25s-2-22 2-28c4-4 39-28 45-31 3-2 7-2 11-4 9-4 18-10 27-14 3-2 7-2 9-4 6-4 10-11 17-14s15 0 22-2c6-2 8-9 6-15-10-4-11-59 1-54 9 4 10 34 13 44 4 8 18 16 26 18 12 3 22-3 34-1 3-1 9 0 11 1 6 4 9 14 1 17-9 4-46 12-57 13-9 1-58-3-56 13 1 4 11 7 14 7 5-1 12-7 18-9 4-1 25-1 29 0 2 1 7 6 6 9 0 6-18 18-14 26 12 4 56 6 60 8 4 1 5 5 9 7 2 1 16 5 18 5 3-1 5-4 7-5 8-5 18-8 26-14 7-4 12-9 18-13 5-2 9-3 14-5 16-6 32-15 49-19 10-2 26 6 32 4 11-3 11-26 27-19 4 3 6 22 11 26 4 4 18 1 14 11-3 8-52 49-62 60-15 14-23 34-35 50-11 16-41 46-39 65 0 1 1 3 2 4 2 3 12 9 16 9 11-1 25-21 42-20 20 0 47 18 65 13 6-2 12-9 18-10 4 0 20 3 24 4 5 2 24 32 26 38s-2 18-1 25c1 11 6 22 6 33 0 17-9 16-14 24-2 4-1 11 2 14 2 1 20 6 23 6 5 0 9-2 14-1 8 0 16 4 24 5 4 0 12-2 16-3 21-10 41-43 49-64 6-18 11-48 24-61 10-10 37-32 51-33 4-1 13 2 16 0 5-5 7-30 12-37 4-6 14-7 16-13 5-11 2-27 8-37 5-8 26-9 33-6 6 2 13 11 25 9 3 0 9-4 11-6s3-6 5-8c11-9 56-25 59-29 11-16-15-24-14-51 1-10 23-34 14-38-12-5-62 13-70 24-3 5-5 17-9 20-7 4-23-5-28 0-4 5-8 21-13 28-7 10-33 26-45 29-5 1-18 3-24 3-6-1-30-5-33-11-2-4-1-12-2-18-1-1-13-22-15-24s-4-4-7-5c-9-5-39-7-44-14-4-6-10-27-13-29-1-1-18-2-21-2-9 0-18 3-27 4-16 2-35-1-50 3-10 1-9 14-15 14-8 1-9-10-14-13-7-5-22 0-25-10-1-2-1-7 0-9s10-4 13-4c8-1 22 5 29 4 4-1 9-8 13-9s14 3 18 2c4-2 7-9 11-12s33-5 37-3c3 1 4 4 6 6 3 2 16 3 19 1 2-1 8-10 10-12 7-12-5-30 5-41 2-3 7-3 10-5 2-2 8-11 10-14 6-9 5-18 8-28 2-9 11 6 21 2 2-1 6-5 7-6-2-5-9-5-13-7s-20-18-22-23c-3-4-1-27 3-29 1 0 5 0 7 1 7 2 16 26 25 31 2 1 8 3 10 2 3-2 15-34 18-40 5-8 11-14 16-21 3-1 4-3 6-5 4-5 19-15 24-17 13-6 19 7 31-9 5-7 6-17 13-24 8-8 18-16 28-23 4-2 11-4 14-7 5-5 8-14 12-21 6-8 13-16 20-23 3-3 12-9 15-11 6-2 13 1 16-6 5-10 4-39 12-44 12-8 59-32 72-37 2 0 4 0 6-1 4-3 9-8 12-12 17-19 34-20 54-33 6-4 22-19 26-25s5-14 9-20c8-11 26-21 40-16 6 3 6 15 9 20 4 8 14 14 10 25-2 8-20 9-27 15-10 9-18 41-35 55-16 13-30 5-35 32-3 17 35-2 31 14 0 3-2 7-3 9-6 6-21 14-28 8-2-2-2-5-4-6-1-1-6 0-8 0-13 5-18 27-27 37-7 8-18 9-22 11-3 0-9-2-8 4 0 1 11 12 13 14 4 6 7 13 13 19 2 3 14 9 18 8 3-1 8-8 12-9s24 4 29 5c7 3 12 9 19 11 14 5 32 0 45 11 8 7-2 17-9 19-12 2-26-6-39-3-7 2-15 18-13 25 1 1 12 16 2 20l-3-1c-2-3-3-14-8-14-7 1-9 16-9 21-2 15 2 30 1 46-2 17-15 30-16 47 0 4 1 18 2 21 2 4 5 6 7 10 1 4-1 23-2 27-2 4-10 13-14 16-2 2-31 16-33 16-13 1-24-7-36-6-17 1-20 18-31 27 7 1 36-9 38-8 1 1 2 2 2 4 2 18-46 40-29 49s53-14 85-5c31 9 32 33 53 45 5 3 23 7 28 7 7 0 11-6 16-7 11-2 16-17 26-17 12 0 33 27 44 33 6 4 23 8 29 7 11-1 28-14 43-16 8-1 26-2 33-1 34 10 93 33 125 49 17 7 28 23 45 29 13 5 36 2 46 7 4 2 6 14 11 16 3 2 31 3 37 3 9 1 22 3 29 8 7 4 16 20 24 18 3-1 11-8 16-9 8-2 18 0 27-1 13-2 33-11 45-6 2 1 4 4 6 5 6 2 15-1 21 2 9 5 17 23 32 24 13 0 32-16 46-10 2 1 8 6 9 8 8 10 14 21 21 30 5 8 11 14 16 22 8 14 14 30 23 44 4 6 10 14 16 19 3 2 6 3 8 6 8 8 16 21 22 31 4 6 10 27 10 34 0 17-9 43-14 59-13 53-35 69-67 109-4 7-8 14-14 20-7 7-16 12-23 19-15 16-31 54-49 63-4 2-10 2-15 3-18 5-34 14-53 18s-27-4-51 8c-18 8-37 19-53 31-6 4-9 10-14 15-19 17-42 41-64 52-8 5-25 2-35 4-6 1-11 6-17 8-7 2-19 6-27 6-20 0-19-17-33-13-14 5-18 32-38 33-12 1-24-6-37-6-11 0-19 10-31 3-7-4-18-19-27-17-2 0-3 1-5 2-3 0-15-4-21-3-3 0-19 5-21 7-7 6-5 32-31 34-5 1-21-2-26-4-13-4-27-16-36-26-7-10 1-17-13-26-2-1-17-6-20-6-3 1-6 4-9 6-14 9-22 17-34 25-16 11-44 13-62 6-26-10-25-38-43-53-3-3-17-7-21-6-13 1-18 38-28 45-14 10-37 17-53 23-21 8-41 10-62 14-35 6-70 15-103 29-14 7-29 31-43 42-17 13-38 20-54 34-6 5-10 19-15 26-7 11-21 15-28 25-13 17-18 40-31 56-19 22-44 37-64 57-13 14-1 34-10 49-11 19-30 34-51 41-10 4-25 7-36 8-6 0-12-2-18-2-3 1-5 3-8 3-16 2-33-10-49-7-12 3-15 24-41 30-30 7-62 12-93 16-9 1-18-2-27-1-5 1-20 3-23 7-4 5-6 29-6 36 0 8 2 20 9 25s51 24 58 23c17-1 33-11 49-15 5-1 41-6 42-5 1 0 2 1 2 3 1 2-2 9-3 11-3 3-23 14-28 16-14 5-30 5-45 10-20 6-42 15-60 26-5 3-23 19-25 24-2 3-2 12 0 16 16 9 28-11 50-4 0 4 1 9 0 12-1 4-10 14-13 15-8 3-18 1-26 3-13 4-24 14-37 16-5 1-10-1-15-1-3 0-54 17-59 20-3 1-9 5-12 6-2 0-14-3-16-4-5-3 8-18 0-23-2-1-14-3-17-3-4 0-15 3-18 7-2 3-6 14-2 18 1 1 3 1 5 2 25 11 3 23-10 31-11 7-40 13-52 9-19-6-11-25-28-22-4 1-17 7-21 10-5 3-8 8-13 12-12 9-28 12-40 22-12 11-17 26-27 38-2 3-7 6-9 10-6 13-3 29-10 42-5 8-20 3-21 26-2 15 1 31 2 46 1 6 5 45 8 47 2 2 8 4 10 4 6-1 57-25 65-30 20-10 30-26 54-25 3 0 6 0 7 3 6 15-17 27-24 37-4 5-10 17-11 23-1 2-3 10-2 12 0 2 1 3 2 5 4 3 9 5 14 8 7 6 17 13 22 21 7 9-5 23 8 32 10 7 26-5 30 1 1 1 1 3 1 4 1 16-8 13-10 19-3 7 3 18-4 22-5 2-24-1-14 19 3 5 29 35 33 37 7 4 30-9 30-1 0 1-2 5-3 6-2 3-36 21-40 22-12 3-18-4-21-3-5 2-1 14-10 12-2-1-5-6-6-8-5-12 2-14 0-21-1-5-11-20-15-23-7-4-30-9-34 2-1 4 0 20 2 23 5 8 26 12 25 20 0 2-4 14-5 16-5 9-13-2-17 5-1 1-5 13-4 14v3c5 4 49 18 54 17 9-1 9-18 24-21 3 0 5-1 7 0 3 2 12 21 18 25 7 5 31 1 41 3 5 1 38 12 40 15 2 2 3 5 3 7 3 12 5 24 0 35-5 9-14 12-21 18 3 2 8 2 11 3 2 2 10 9 11 11 2 3 0 15 2 19 1 3 3 5 4 8s3 15 5 17c8 7 12-2 18-3 7-2 19 9 26 11 4 2 15 1 18 3 2 1 5 9 6 12 2 9-3 18-8 26-14-3-22-10-34 4-5 6-4 32 9 29 3 0 12-12 16-14 1 0 14 3 21 1 17-5 46-23 59-26 5-1 8-2 13-4 7-3 46-21 48-10 1 4-1 4-3 7-4 6-6 29-13 30-4 1-8-2-12 0-9 2-2 14-12 21-6 3-13 4-19 6-7 3-13 8-21 10-4 2-9 0-12 2-6 3-11 10-16 14-3 2-17 10-18 12-1 1-2 4-1 6 0 5 9 6 13 6 4-1 20-6 24-8 10-6 15-17 25-23 8-6 18-9 27-13 5-3 9-7 15-7 3 0 7 1 7 5 0 2-2 5-2 6-3 8-2 18-6 25-1 1-4 5-4 6 0 2 3 4 4 5 2 0 8-2 9-3 12-8 8-25 15-34 3-4 9-6 11-10 3-5-4-9-5-13 0-2 2-8 3-9 2-1 11 0 15-1 6-2 10-8 16-9 22-6 21 10 30 14 5 4 13 2 19 4 6 3 14 9 22 8s2-17 8-22c2-2 9-6 12-6 6-1 28 7 30 13 3 9-14 11-9 22 1 3 9 8 12 11 3 6 4 13 6 19 2 4 7 12 11 14 3 3 23 9 27 9 4 1 9-2 13-3 8-1 20-1 28 0s25 10 31 7c11-4 35-30 47-39s37-21 52-21c6 1 12 4 18 4 2-5 4-15 4-20s-3-10-3-16c-1-14 6-32 4-45 0-3-2-5-3-8-6-13-14-39-6-52 1-3 7-9 11-10 17-7 68-19 87-21 9-1 32 3 41 5 13 3 25 11 38 13 22 3 48-5 69 1 6 2 37 30 45 36 35 27 70 38 113 25 14-4 14-10 24-16 6-3 14-4 20-7 4-3 6-6 10-9 12-9 27-19 41-25 10-5 34-4 41-10 8-6 12-29 19-38 5-6 27-19 29-21 1-3 2-11 3-14 8-29 50-118 68-130 4-2 19-7 24-7 6-1 32 9 42 10 6 0 13-2 19-1s12 4 18 6c17 4 26 4 40-6 8-5 41-28 37-39-2-5-16 1-14-6 3-13 13-13 19-21 9-12 13-29 22-40 4-4 18-2 23 0 5 3 20 23 23 29 19 37-12 54-30 82-2 5-9 19-9 24 0 4 6 14 9 17 14 18 42 30 36 57-6 28-8 57-7 86 6 7 7 16 14 22 10 8 23 4 32 19 4 8 5 29 7 39 3 18 10 63 19 78 2 5 7 8 10 12 6 9 8 19 15 27 5 4 9 10 9 17s-18 35-22 44c-3 9-7 20-8 30-2 11-2 24-2 36 1 14 7 28 6 42-1 10-8 18-10 27-3 18 0 37-2 55-2 26-11 55-12 81 0 9 3 19 3 29-1 10-3 21-5 31 2 9 8 50 3 56-4 5-15-4-16 12 0 8 4 19 5 27 2 18 5 36 7 54 4 64 3 141-14 203-7 26-12 67-29 88-11 17-24 34-39 48h-4279c1-2 3-4 5-5 7-7 17-12 23-19 19-23 24-53 35-80 2-5 18-32 18-34 0-3-21-18-22-30 0-3 2-7 3-10 3-14 1-34-5-46-4-7-17-10-23-15-3-2-5-5-8-7-9-5-20-5-28-9-17-9-46-55-49-72-1-6 3-31 6-37 12-25 44-27 61-51 14-19 21-43 36-62 3-5 17-12 18-15 5-9-12-42-20-45-2 0-9-1-11 0-7 1-19 18-25 23-11 10-24 18-35 28-8 7-15 17-24 23-3 2-13 7-17 7-2 0-10-2-11-4-10-10 8-24-2-41-4-6-24-24-25-27s1-5 2-8c2-9 13-11 8-20-1-3-6-8-9-9-4-2-40-6-46-6-1 0-5-1-5 0-5 4 8 15 0 24-7 7-21 3-21-8 1-5 8-16 7-19-15-16-69 6-89 11-6 1-16 1-22 4-16 7-54 55-69 61 0 0-23 3-27 4-17 5-40 12-57 5-7-4-14-8-23-6-16 2-19 26-51 21-3 0-17-6-19-8-3-3-4-12-6-16-8-2-18-1-26-4-7-4-13-13-20-15-5-2-11 1-15-1-8-3-7-8-25-6-2 0-4 1-6 2-2 2-4 15-7 19-4 7-23 18-30 17-4 0-16-3-20-4l-12-6c-17-6-40-6-56-15-9-5-9-19-24-16-3 0-17 10-20 13-5 6-7 18-12 22-7 6-75 12-97 24-10 6-37 30-47 30-5 1-48-9-51-12-1-1-2-3-4-5 0-9 3-16-7-22-32-17-190-33-225-23-13 4-27 16-40 17-15 2-29-7-43-6-8 0-14 7-22 7-11 1-34-8-43-6-21 6-37 34-69 37-17 1-33-6-50-6-5 1-9 3-13 3-20 0-39 9-60 11-34 3-68-15-102-9-19 4-38 9-55 15-11 4-21 10-32 14-15 5-31 6-46 11-29 10-59 30-81 52-11 11-27 46-42 47-2 0-27-7-29-8-3-2-5-7-8-9-4-4-16-8-21-8-13 2-15 24-33 25-9 1-23-7-33-7-7-1-44 11-51 14-39 20-40 57-63 67-9 5-44 11-47 20-22 14-42 21-68 23-11 1-30-5-40-8-9-3-36-13-46-13-17-1-17 7-39 0 1-5-18-21-23-20-4 1-4 13-14 6s-2-54-9-57h-6c-7 4-17 35-53 37-29 2-44-14-64-18-12-3-21 7-28 6-9 0-11-15-32-14-18 1-35 9-52 12-18 3-46-6-63-13-62-26-74-46-102-105-4-7-8-15-10-23-6-22 23-52-4-50-17 1-35 9-52 12 0-5 5-43 7-50zm3677 3c6-11 7-35 13-49 2-6 20-25 18-31-1-5-16-22-19-30-2-5 0-17-3-21-6-14-27-14-23-37 5-28 14-73 26-99 5-8 11-16 15-25 7-14 24-52 27-65 0-2 0-5-1-6-2-1-10 1-12 2-10 5-19 15-30 19-4 1-13-2-16 0-1 0-16 19-24 21-8 1-29-8-42-5-24 5-33 27-56 34-13 5-30 8-44 9-10 1-30-5-40-2-18 5-32 21-53 19-9 0-24-10-30-16-1-2-2-4-3-5-5-3-11-4-16-8-5-3-9-9-15-12-4-2-17-4-21-3-7 1-14 8-20 10-5 2-4 0-8 5-6 7-4 23-16 26-4 0-18-1-21-3-6-4-5-19-19-18-3 0-10 4-13 6-4 3-12 10-15 14-8 13-15 46-15 61-1 6 8 20 12 24 2 3 6 4 8 6 3 2 6 7 8 8 19 9 40-2 60 6 8 3 14 9 21 12 9 4 19 4 27 8 15 8 28 19 43 27 9 5 19 8 28 13 4 3 7 7 11 9 7 5 17 6 25 10 2 1 3 3 5 4 21 8 27 1 42 3 7 1 32 8 38 11 17 8 30 48 53 62 9 5 30 5 40 4s19-6 29-6c9 0 19 8 26 8zm3318-342c-9-5-30-20-37-27-15-14-8-35 1-49 20-29 41-56 60-85 2-4 12-23 8-25-4-3-11 1-13 4-14 15-27 31-40 47-6 8-17 19-23 27 0 1 0 3-1 4 0 1-12 13-14 15-3 3-7 4-10 7-8 6-15 15-24 21-16 10-54 28-73 34-4 1-8 2-11 2-7 0-33-4-37 0-6 6 1 26 2 34 0 7-1 15-3 22-5 5-30 0-38 5-18 10-18 23-30 36-10 12-23 3-26 9-1 1-1 3-1 4 1 12 9 28 19 36 5 3 12 3 17 6 5 4 5 14 15 17 12 4 39 7 52 2 5-2 14-13 20-10 1 1 4 6 6 8 3 3 11 6 15 5 2 0 8-3 9-4 2-5-4-17 3-24 4-3 9-5 12-8 12-7 24-15 35-23 6-5 12-10 17-16 15-17 17-47 25-55 9-10 18-1 28-4 3-1 6-8 9-9 5-3 22-4 28-6zm-1064 78c2-5-3-6-3-10 1-16 17-40 15-61 0-3-3-13-6-14-2-1-8 2-9 3-5 3-8 8-12 12-8 8-17 15-25 22-3 2-7 4-10 6-7 7-7 20-11 28-1 3-6 8-7 10 0 4 10 11 12 16 2 7 3 28 6 33 0 2 4 3 6 3 1 1 3 1 4 0 8-7 19-38 29-44 3-2 8-2 11-4zm-1528-520c-5 7-21 8-24 15 0 3-2 11 0 13 3 5 19 14 25 19 9 10 13 27 24 35 4 2 32 14 33 6 2-10-24-16-30-23-2-2-5-8-6-11-1-4-2-9-4-14-3-6-7-12-9-18-1-4 2-20-2-22-2-1-6-2-7 0zm146 342c5-2 5-6 9-9l3 1c2 4 6 15 8 17 4 3 23-1 28-1 6 0 15 5 19-2 0-2 1-6 1-8-2-18-15-15-26-25-2-2-11-15-12-18-1-4-3-15-8-16-7-2-4 10-5 13 0 2 0 5-1 6 0 2-2 6-3 6-3 1-15-3-18-2-5 2-6 30-1 36 1 1 4 2 6 2zm65 60c-3-1-5-9-6-10h-5c-4 2-4 10-3 14 4 12 14 16 22 24 3 3 7 9 9 10 9 5 9-8 13-12 2-2 17-4 13-9-1-1-18-10-21-11-5-2-19-3-22-6zm465-225c7 0 14 5 21 5 9 1 18-3 27-4 5 0 19 1 23 3 4 3 12 21 19 27 10 9 22 16 32 25 4 3 6 8 10 11 2 1 12 6 15 5 2 0 5-3 8-4 3 0 15 3 19 3 3-7-5-28-8-34-5-12-20 3-27 4-4 0-16-3-19-5s-8-13-10-17c-2-3-7-8-8-11-2-9-1-32-6-38-4-5-10-8-14-13-2-3-1-12-4-14-2-2-14-3-18-2-5 1-12 7-16 7-12 0-24-6-36-8-10-2-23-1-32-5-15-6-18-32-32-40-5-2-22-7-27-7-15 1-26 26-36 34-5 4-13 5-17 9-2 2-6 9-5 11s6 3 8 3c8-1 21-11 34-11 3 0 7 1 10 2 22 6 18 11 35 21 4 3 9 4 13 6 3 3 5 7 9 8 8 5 21 4 29 9 6 4 2 15 3 20zm77-541c-2 0-5 2-7 3-4 0-13 0-15 4-1 3-3 17-2 20 0 3 7 11 10 12 3 2 17 4 21 4 2 0 7-3 8-4 1-4 3-18 2-22-1-7-9-17-17-17zm150 180c-2-2-7-6-7-8-3-9 12-24 12-32 0-2-2-6-3-7-4-2-11 3-13 7-3 4-1 15-9 15-5 0-10-4-16-4-3 0-13 5-17 6-1 1-5 4-6 6-1 3 0 17 3 19 2 2 11 2 14 1 5-1 13-11 19-9 5 3 7 9 10 13 1 1 8 7 10 7 5-1 8-6 6-11 0-1-2-2-3-3zm203 115c10-6 29 17 33 10 2-4-3-7-5-8-7-6-13-13-21-19-4-3-17-9-20-13-2-2-1-13-3-16-1-1-8-1-9-2s-1-2-2-2c-4-4-15-1-19 1-5 3-4 14-8 17-8 7-22 8-30 16-2 2-4 14-5 17 0 5 20 17 27 14 7-2 12-18 16-24 3-3 11-4 14-3 6 2-1 17-3 20-3 4-9 5-10 10-1 1-1 5 0 6 4 2 30 9 35 10 4 0 17-1 21-2 1-1 4-2 5-3 3-2 4-4 5-7 0-7-18-13-21-22zm-13 181c-1-10-4-39-10-46-3-5-24-8-29-7-3 0-14 7-15 9s-1 5 0 6c1 2 20 23 22 24 0 0 2 0 2 1 3 2 5 9 4 12-2 9-17 32-5 39 1 2 20 8 22 8 8 0 9-40 9-46zm180 94c2-4 5-11-1-14-1 0-5-1-6 0-4 1-4 7-6 8-5 4-31-3-42 4-4 2-13 10-15 13-1 1-2 3-3 4 0 1 0 4 1 5 4 4 24-2 30 0 3 0 1 7 10 8 5 0 23-16 27-20 2-2 4-5 5-8zm-211 208c-1-5-2-23-3-27-3-5-21-3-24-1-6 4-7 20-5 25 1 5 5 18 7 22 2 1 10 9 12 10h3c2-1 7-3 8-5 1-3 2-20 2-24zm-276 396c-6 17-11 50-1 64 1 1 3 2 4 3 19 7 34-5 53-7 18-2 36 1 54 0 12-1 24-7 36-7 17 1 34 8 51 10 4 1 16 0 19 1 3 2 7 8 8 10 6 13-3 19 17 19 15 1 46-13 59-21 13-6 26-9 39-14 6-2 11-5 17-6 16-6 33-9 49-14 5-2 10-5 15-6 9-2 19 0 26-6 3-2 10-11 12-12 6-2 8 7 12 9 5 3 18 2 20-4 2-5 1-27 1-34 0-5 1-10 2-15 0-3 2-14 1-17-1-1-5-4-6-5-2 0-6 2-7 2-14 7 7 15-14 26-13 6-34 3-44 6-13 5-18 27-25 31-1 1-8-2-9-3-9-8-5-29-9-37-1-3-4-3-7-4-2 0-12 2-14 3-5 2-20 14-22 15-8 2-20-2-29-1-11 1-23 7-34 8-19 2-17-9-21-10-3-1-20 0-23 1-16 4-32 10-47 16-14 5-29 17-43 20-2 1-11-2-13-4-4-4-2-10-8-14-6-1-14 1-20 0-7-2-14-6-21-7-1-1-12 1-16 1-5 0-19-2-23-5s-8-21-14-19c-8 4-5 28-5 29-2 3-9 2-12 1-1-1-2-3-4-5-2 0-3 0-4 2zm606-111c0 9 26-4 19-18-5-10-14-10-15-22 0-7 2-13 2-19 1-7-1-14 1-22 0-1-1-6-2-6-1-1-7 2-8 3-6 5-2 28-4 36-1 5-7 11-4 17 2 4 7 7 9 11 1 3 3 14 2 20zm-1979-1363c-6-1-11-5-16-7-6-2-41-1-42 5s27 7 31 8c8 2 15 5 23 5 5 1 42-2 44-5 0-1-2-3-2-3-2-1-21-3-24-3-5 0-10 1-14 0zm-325-186v3c2 3 5 5 8 8 4 4 8 9 12 13 5 6 11 11 15 16 3 3 8 13 10 14 8 6 13-9 9-16-1-2-40-37-43-39-1-1-4-2-4-2-3 0-5 2-7 3zm3-75c-4-1-4 6-3 8 0 2 3 4 4 5 2 3 5 6 7 7 5 3 18 7 21 11 2 2-2 16 8 21 1 0 4 1 5 0 1 0 2-4 2-5 2-6 3-10-1-15-4-7-36-31-43-32zm-83-93c-2-8-7-14-11-21-2-5-8-28-17-18-1 1-3 5-3 7 0 10 15 20 18 29s-4 13-3 22c0 5 23 51 26 52 1 1 4 1 5 1 1-1 2-8 2-10-2-19-10-20-14-30-3-10-1-22-3-32zm-1635 1102c-13-5-35-6-47 0-10 5-9 21 1 26 7 3 16 2 22 6 11 5 20 16 31 22 3 1 15 4 18 2 3-1 5-10 4-12-2-10-20-40-29-44zm-212 26c-18 8-33 21-51 29l-6 3c-7 4-32 26-34 33 0 2 0 6 1 7 1 3 13 16 15 17 1 1 5 2 6 1 2 0 8-7 11-9 5-2 16-6 21-3s9 26 15 32c4 5 20 10 26 14 5 2 9 8 14 10 3 1 10 2 13 1 7-1 25-24 29-31 4-8 28-56 26-64-3-11-36 1-45-10-2-3-3-21-1-25 1-2 10-5 11-7 1-1 1-6 0-7-2-1-17-1-20 0-7 1-25 6-31 9zm-257 199c5-4 11-8 16-12 2-3 9-14 10-17 6-14-13-20-23-17-4 1-20 11-23 14s-4 9-6 12c-3 3-11 7-13 10-1 3-2 11-1 13 1 3 10 10 13 12 2 0 7 1 9 0 3-1 14-12 18-15zm1154-400c-5 8 6 12 1 22-2 4-6 6-8 10-3 3-11 20-11 23-1 2 0 5 1 7 6 8 18 12 23 20 10 15 14 34 22 50 3 5 7 9 9 14 18 40-8 65-6 70 2 6 20 9 22 18 0 3-2 20-3 24-10 2-13 8-14 16-3 27-3 56-3 84 0 5 4 30 4 31-2 9-11 5-11 20 0 9 6 16 15 17 7-4 6-12 10-17l4-1c13 6 10 35 20 42 5 4 16-7 23-7 9-1 21 7 31 6 9-2 18-40 15-48-3-11-13-17-7-29 9 0 15 2 21 3 6 0 19-3 24-2 3 1 14 13 15 15l2 5c3 2 14 7 18 7 10-1 18-15 19-24 6-33 7-67 12-100 3-23 11-50 12-73 0-10-10-14-13-19-3-4-10-23-11-28-3-23 29-32 21-76-1-9-7-18-9-26-2-10-4-22-4-32 0-2 1-4 0-6-1-3-18-17-21-23-5-8-8-30-12-35-3-3-13-3-17-5-3-2-5-11-9-14-3-2-21-6-25-6-13 1-12 16-18 22-4 4-13 6-18 10-13 10-23 26-36 35-4 2-12 1-16 3-9 4-28 18-35 19-15 3-25-30-37-22zm63-231c0 3-1 7 0 9 4 4 13 2 18 3 4 4 3 19 1 24s-9 6-10 12c0 2 0 7 2 8 8 5 26 1 33 9 3 14-19 8-15 24 0 1 3 5 4 5 7 3 11 8 17 12 5 3 19 5 23 8 1 2 4 25 20 17 4-2 18-15 20-20 5-15 8-34 10-51 2-14 2-29 4-43 3-21 22-30 22-54 0-17-1-41-3-58-1-2-3-5-4-8-3-8-9-26-10-34-2-27 9-49-3-76-1-2-4-5-6-6-22-14-13 49-15 58-1 2-10 7-13 7-9 0-18-9-27-5-16 7-29 19-43 29-2 1-6 2-8 4-3 4-5 9-7 13-6 8-15 15-19 23-5 12 8 18 8 24 0 3-6 6-7 9s-2 15-1 17c1 1 21 14 20 22 0 3-8 16-11 18z"/>
  <path d="m-3756 7829c-13 2-26 2-38 3-4 0-13 0-16 3-12 13-21 38-29 55-10 22-24 42-34 64-8 17-11 35-20 52-8 13-19 24-27 37-9 14-14 30-24 44-12 18-29 33-42 50-4 5-6 11-10 15-6 6-14 10-21 15-18 14-32 29-53 38-61 27-129 40-193 56-16 4-31 7-46 12h-1837v-8268h7936c6 5 15 9 20 14l16 17v3c-6 4-17 9-20 13-6 8-12 31-16 35-2 2-10 2-11 4-2 1-1 7 0 9 5 12 18 22 24 34 4 6 3 15 6 22 9 20 42 67 31 88-2 5-16 21-20 25s-9 8-14 11c-11 8-24 14-35 22-4 3-6 7-11 10-4 3-19 10-24 10-25 1-38-16-57-27-8-5-31-12-39-12-17 0-27 11-43-4-9-7-16-26-13-37 1-6 11-12 11-21-1-10-14-21-7-33 14-21 76-50 72-74-3-14-32-45-45-49-16-6-36 0-52-5-10-2-10-11-18-15-5-2-23-4-29-3-29 4-53 33-76 48-19 11-42 20-64 20-13 0-32-7-43-6-2 1-5 3-6 5v5c5 4 12 7 17 10 7 3 14 8 21 9 21 5 45 3 65 9 2 1 5 4 7 6 3 4 11 13 13 17 3 5 4 20 6 24 2 2 10 2 12 5 6 7 26 48 30 58 5 12 5 26 9 38 1 5 4 11 5 16 3 11 3 25 7 35 5 11 18 20 29 21 23-15 41-10 60 8 2 1 4 3 5 5 5 7 8 17 13 24 8 13 21 25 27 39 11 25 14 54 25 80 9 21 32 34 43 54l-1 7-3 1c-6-1-17-5-22-8-7-5-21-25-29-23-4 1-14 8-17 11-5 7-7 18-12 25-1 2-2 3-4 3-3 0-7-3-7-6 3-10 13-34 11-42-20-4-54-12-72 2-4 3-12 18-14 19l-4 2c-17-2-14-28-36-22-3 1-11 5-12 8-2 8 1 40 0 51-1 15-3 32-6 47-4 14-16 43-25 55-5 8-13 13-17 22-6 14-7 30-12 44-4 13-12 25-15 38-2 10-7 44-6 54 2 31 82 60 103 72 6 4 22 15 27 20 5 6 7 14 12 19 6 7 15 10 21 16 4 4 12 15 8 20-5 8-56 7-66 13-9 5-6 21-27 21-23 0-46-8-69-9-14-1-28 10-41 11-4 0-9-3-11-6-35 10-141-22-155-10-10 8 5 35 6 44 2 28-19 19-25 24v5c6 10 24 22 35 27 8 4 17 3 25 7 25 12 40 33 69 39 25 4 30-23 39-26s27 8 31 15c1 1 1 18 3 21s25 8 29 32c3 19-22 25-28 35-3 5-1 21-4 27-2 3-10 8-14 8-14 0-29-10-44-11s-61 16-72-1c-2-4-1-10-3-14-3-5-6-6-8-12-4 0-12 2-16 5-17-3-38-12-55-11-16 1-12 22-45 9-33-12-29-31-45-50-2-3-7-4-9-7-4-5-5-11-8-16-4-5-10-8-13-13-10-13-14-27-26-41-24-28-35-22-50-36-1-1-4-9-5-11-3-17 13-17 15-24 2-5 3-27 2-33-1-5-6-8-7-13-2-5 1-13-1-17-3-7-30-37-37-44-13-12-48-10-50-12-7-5-14-7-23-7-10 0-46 6-53 1-7-4-6-22-19-29-12-6-27-9-39-14 1-4 5-8 6-13l-3-3c-15-5-18 14-36 5 1-2 5-11 3-12-4-3-26-2-32-4-3-1-21-10-22-12l-2-2c0-5 3-12 2-16-1-9-22-16-30-17-6-1-12 0-17-1l-3-2c11-10 60-14 75-14 6 7 1 9 3 15 2 4 15 18 19 20 8 4 45 13 53 13 3 0 12-9 17-11 6-2 18 8 28 6 10-1 33-8 41-5 6 5-3 15 11 18 8-8 10-23 23-26 21-4 30 23 64 22 35-1 69-16 102-24 23-5 64-1 89-2 22 0 66-6 85-18 3-2 4-5 7-7 11-8 25-12 36-19 23-14 40-34 54-56 10-16 20-33 27-49 14-33 12-99 13-135 0-11-11-55-16-64-10-20-27 1-37-9-7-6-7-14-12-20-8-8-20-13-27-22-7-11-1-28-17-35-5-2-34-4-38-2-7 2-13 16-23 8-9-8-6-17-11-21-10-8-55-19-69-20-2 4-14 10-18 12-3 2-6 6-9 6-16 1-58-16-75-21l-4 1c-3 7 6 3 0 15-18 7-33-28-62-36-9-2-19-2-28-3-18-3-37-6-55-11-12-3-23-10-36-13-22-4-45-6-68-10-17-3-34-10-51-12-3 0-37 12-40 14-3 3 4 14-6 18-8 3-20 2-29 4-11 4-21-13-37-11-7 7-4 13-7 16-4 4-26 11-29 15-3 3 1 29 1 35 0 4-5 26-12 25l-6-1-3-6c0-10 12-16 11-25-1-17-12-12-14-18-3-7 6-18 1-27-5 0-18 0-22 2-10 3-18 20-26 4-22-7-23 3-37 10l-4-2c-3-7 2-6-5-13-12 0-23 10-33 4-2-3 1-19 3-22 1-1 5-3 7-3 8 0 17 7 25 7 16 2 37-11 34-29 0-3-4-7-6-9-13-12-26 2-35 2-7-1-32-10-41-15-3 0-6-1-9 0l-1 4c3 6 9 11 12 18l-1 5c-9 5-18-2-25 1-2 1-5 8-4 11 1 6 15 8 9 18-1 1-15 12-16 12-2 1-4 1-5 1-3-3-4-9-7-11-6-4-20-3-26-1-6 1-10 8-15 8-4 1-12-4-16-5-12 8-4 25-5 27-1 1-5-1-6-2-9-7-6-16-18-25-8 10 11 23 6 31-3 5-19 6-24 7s-9 6-14 6c-2 0-6-1-7-3-1-1 1-5 1-6s-3-20-3-20c-2-4-8-5-8-12 0-3 6-11-3-11-6-1-17 5-25 5-10-1-58-11-64-16l1-3c7-5 94-8 104-22 10-12 11-31 21-43 8-10 34-11 32-28-1-7-9-20-17-18-14 20-24-7-29-10-2-1-13-1-15-1-9 3-15 17-27 10l-1-2c7-14 9-7 17-14v-3l-4-1c-4 2-12 4-16 3l-2-3 2-3 4-2 2-3c-1-2-4-4-5-5-13-5-22 21-26 30l-3-1c0-4-6-22-9-24-12 4-9 20-17 27l-2-2 1-3c-2-5-6-17-9-21-5-6-27-16-33-10-2 2-8 11-9 13-2 7-7 28-5 35 2 9 15 29 20 41-9 4-22 4-20 17 0 4 1 6 4 9l-2 7c-2 1-5 0-7-1-2-3-3-14-3-19-1-1-3-2-4-3-7 2-16 8-20 9l-3-3c1-5 11-16 13-23 1-3 8-33 7-34s-4-2-6-1c-6 10-16 27-30 26-9-13 18-23 10-35-2 0-5 2-8 2-8-1-4-7 0-10 6-5 16-7 21-12 4-4 8-18 7-25-12-3-26-7-38-8-3 0-6 1-9 1-4 1-22-1-24 0l-4 1c-1 5-1 19-3 22-1 2-7 2-9 4-1 2-3 7-3 9 1 8 17 9 23 13 2 1 6 7 8 9l-1 4c-4 3-16 8-17 12-2 9 5 31 4 41-1 8-13 50-19 53h-7c-7-13-4-29-9-42-3-8-17-7-20-11-1-4 8-12 9-15 1-5 2-34-2-38-2-2-10-4-12-3-5 3-16 20-17 25-8 28-20 85-22 114 0 3 7 8 8 13 0 1-9 32-10 34-3 4-17 9-21 6-10-10-2-51-4-65-2-9-12-16-14-24-1-2 0-4 0-5 9-29 20-23 28-39 3-6 7-24 8-32 1-4-1-10-6-9-2 0-9 8-12 9-4 0-12-2-16-2l-3 2c-1 3-1 7-4 13-17-4-26-11-45-8-2 9 11 17-1 24-11 0-22-10-19 7 6 6 18 5 24 9 2 1 11 11 11 13v4l-1 2c-8 1-11-2-18 2-3 8-5 19-5 27-1 5 3 6 1 12-6 1-18-1-21 1s-16 22-16 24c-1 11 0 21 0 31-1 9-6 30-5 37 0 5 8 9 10 13 0 1 1 4 0 5-4 7-15 11-23 8-2-7-9-8-13-13s-7-19-11-22-18-2-23-3c-4 0-9 0-13 3-3 8 4 14 3 18-2 4-19 5-21 0-1-3 3-14 2-18l-3-3-4 3c-4 0-9-2-16-1-5 10-1 10-2 19l-2 2c-6-1-14-6-18-11l-3-1-2 4c-5 1-10-2-15 2-7 16 11 13 18 18 3 1 5 6 7 7 9 3 23 0 31 5 10 5 17 45 13 49-1 1-4 1-5 2-7-8-16-7-24-12-4-3-8-12-12-14-2-1-16-3-18-2l-3 1c-2 7 3 8 3 14 0 4-7 22-12 23-4 1-7-5-14-3-6 7-12 16-16 25-5 11 3 22 2 33-1 14-9 76-31 76-2-3-2-5-1-9 2-7 7-13 8-20 10-46 9-63-1-108-6-4-9-3-13 1-6 7-13 46-13 55-1 16 6 35 0 50-1 2-7 9-9 10s-7 0-10-3c1-24 2-48 1-74-15-3-41 11-49 24-2 2 0 12 1 15 4 7 10 8 15 12l-1 4c-1 1-4 1-5 2-2 3 1 11 3 14 3 6 25 14 32 24 9 11 10 29-10 22-4-6 0-18-5-22-4-2-19-3-23-6s-10-37-31-27c-1 3-4 12-5 16 8 18 22 20 29 28-1 4-3 7-8 9-12 2-13-11-21-16-3-2-14-1-17-2-1-1-2-4-3-4-1-1-5 0-6 1-2 14 9 43 3 58-2 7-23 10-29 14-10 8-11 25-13 36-1 1-1 3-1 5 0 1 4 3 5 3 7 1 7-6 10-9 5-5 12-2 14 4-3 8-11 7-15 22 5 3 11 2 17 6-2 4-27 7-32 7l-1 4c1 1 22 7 19 12-1 1-6 0-8 0-2 1-11 3-14 5-3 1-7 7-10 8-4 0-14-6-18-5-5 1-18 12-21 16-2 5-3 16-5 22 0 1-2 4-1 6 0 1 4 1 5 2 3 1 9 5 12 4 6-1 25-13 27-13 5 0 9 7 12 6 10-2 17-19 25-22l4 2c1 5-1 14 1 17 0 2 5 4 6 6l-1 3c-2 1-5 1-6 2-2 2-3 8-5 9-3 2-9-2-11 0-6 5 3 16 3 19 2 6-2 10-7 5-2-2-3-7-4-10l-1-2c-18-9-15 1-23 1-9 1-18-5-27-5-2 0-17 5-18 6l-2 2c-2 2-5 14-4 16 1 5 10 12 12 17 1 6-5 17 3 20 2 1 9 1 13 3-3 18-6 13-11 22-2 5 0 11-2 16-7-1-18-12-24-10s-15 15-21 18c-4 2-13-1-17 0-7 2-13 8-19 11-8 3-18 0-26 5-2 5-4 33-3 37 0 1 3 2 5 2 3-1 3-5 9-5 11-17 15-42 42-30 2 1 8 4 9 6 4 10-19 19-23 26-1 3-2 23-1 25 1 1 2 2 3 4 18 7 27-17 38-11l1 3c-6 7-17 21-18 30 0 1 3 14 3 16 2 4 3 5 3 10l-2 5-5-1c-2-1-2-4-3-6-2-3-10-22-13-23-4-2-17-3-21-1-8 2-14 10-22 13-6 2-12-2-18 1-3 8-7 20-7 28 16 19 39-27 75 1 2 1 4 3 5 5 3 6 7 16 3 24-11-1-10-9-16-11s-30-4-36-4c-7 0-31 13-34 19-5 8 2 18-14 29-13 9-31 14-43 25-1 1-1 8 0 9 3 4 11 4 13 9-3 11-12 6-15 10-1 3 3 10 2 12-3 5-16 1-19 4-3 8-5 17-6 29 3 1 8 1 10 5-2 7-7 14-15 16-2 0-4-1-6-1l1 7c-2 6-6 12-7 19 6 14 18-2 27 1 2 2 4 5 5 8-5 4-9-1-11 9l2 3c4-1 5-8 13-5l2 4c-2 6-11 10-15 13-1 0-12 15-19 17-5 2-22-4-29 0-1 1-5 7-5 9-1 4 7 9 10 9 6-1 7-9 16-3s-3 11-3 17c0 5 6 9 6 15-4 4-12-2-16 5-7 11-10 25-16 37-4 6-10 10-14 16-2 3-4 10-2 13 5 17 12-5 24 24 1 2 3 8 3 10 1 13-17 10-17 21 1 12 13 15 10 30-4 5-14 8-7 16 0 1 5 1 6 1 3-4 8-13 10-14 1-2 3-2 5-3 5-5 7-18 15-19 6-1 6 4 5 8-4 12-18 28-29 34-12 7-27 16-41 19-5 1-18-3-23-2-3 1-6 7-9 9-4 4-11 5-15 8-6 5-8 14-14 19-2 2-8 2-9 4-2 2-2 11-1 13l4 2c4-2 7-8 11-10 3-2 10-4 13-5 16-3 4 14 2 20-3 7-3 17-8 22-2 1-7-1-8 1-6 7 9 28 8 37-1 12-11 22-20 28-2 1-8 4-9 2s5-8 4-10c-1-3-8-3-10-6-6-6-9-19-15-28-2 1-4 2-5 3-2 4-1 11-4 14-6 7-16 10-22 16-5 4-6 11-10 16-5 4-18 10-21 15-4 8-2 25-6 32-2 5-14 10-16 14-3 4-8 23-8 27 1 3 11 4 10 11-8 7-22 8-31 14-7 5-26 35-11 34 10-1 11-16 21-18 1 0 8 0 10 1 4 1 5 11 4 14s-7 6-9 9c-2 6 0 21 6 25 2 2 8 3 10 2 21-10 40-27 60-39 3-1 7-2 10-4 9-7 16-17 12-29l-2-1c-9 4-23 16-33 8 0-5 7-9 11-12 9-6 21-12 28-20s10-20 18-27c14-14 38 6 23 28-5 8-14 13-19 21l3 4c5 1 17-2 22 1 1 21-48 45-61 58-2 3-3 7-1 10 8 3 9 10 6 17l-4 2c-16 0-47-7-61 4-3 3-5 12-6 13-5 4-23 11-26 3-2-4 2-14 2-19-1-2-8-20-10-21l-3-3v-5c-13-9-26 14-35 16-3 0-6 0-8 2-1 7 4 7 4 10 0 5-6 10-7 16 4 4 15 4 16 5 3 5-20 21-25 22-1 0-7-1-8-2-2-4 3-28-3-29-3 0-20 5-23 7-2 2-4 8-6 10-6 7-21 13-19 23 2 11 21 9 7 27-6 7-28-3-38 2v5c0 5 18 14 22 15s10-2 15-1c0 1 3 3 3 4 0 2-1 4-2 5-1 2-4 4-6 6-2 4-2 15-5 18-2 1-8 0-10-1-3-5-27-53-38-41-1 1-2 6-2 8 1 2 7 4 8 6 2 2 5 5 6 8 5 7 6 14 10 21 4 8 15 18 22 24 2 2 14 15 7 18-1 1-4-1-5-2-4-3-7-8-11-11-7-6-16-8-23-14-8-7-9-26-13-31-1-1-6-2-8-1-7 0-15 3-22 4-4 0-9-2-13-1-4 0-11 5-15 5-10-1-20-8-31-9-1 0-12 2-13 3-2 2-3 4-5 6v4c2 3 8 5 9 9 2 5-6 17-7 23 6 4 27 0 33-2 3-1 11-6 12-6 4-1 7 0 10-1l3 2c-4 7-9 6-15 11l-1 3c11 13 37-18 49-4-2 7-31 15-39 22-1 6 9 15 4 22-1 1-4 1-6 0-5-1-10-5-15-7-3-1-11-2-13-3s-2-4-3-5c-2-1-15-4-18-5-18-3-24 6-39 7-8 1-19-5-26-2-2 1-6 5-6 6-1 3 3 9 4 12 0 2-2 7-2 9 0 1 2 4 4 5 13 7 26-11 40-6 2 0 4 2 7 3 2 2 6 3 8 5 5 4 9 12 7 19-12-1-14-15-25-15-3 0-18 4-21 5-2 1-4 4-5 6-4 9-3 17 0 26 1 3 4 5 4 8 1 3-1 12-5 12-8 1-11-21-11-27-1-2-4-7-6-8-8-4-31 8-32 19 0 13 12 18 20 27l-2 5c-4 0-13-2-16-3-12-6-10-21-24-17-9 3-6 9-12 13-3-1-19-12-21-14h-3c-11 14 26 19 4 29-11-3-20-37-34-28-1 3 0 5 1 7s-1 8 1 10c2 3 13 8 14 11 1 4-9 11-9 19 5 4 29-6 39-5 5 0 18 2 22 4 4 3 8 12 13 15 7 6 18 5 23 13l-1 3c-8 4-35 2-43-2-9-4-4-14-24-18-3 0-8-1-11 0s-13 9-15 12c-4 6-6 20-10 26-3 3-15 7-17 9-1 1 0 7 1 8 6 8 14 2 20 6 2 2 5 11 5 14 1 6-6 8-6 14 3 2 15 4 17 6 1 1-1 5-2 6-7 9-30 3-33 13-2 8 7 15 7 17 0 4-5 7-5 15 4 6 9 10 13 16 1 2 2 7 4 8 19 14 37-1 56-6 6-1 12 0 17-1 3-1 8-5 11-5 12 1 24 7 36 8 9 0 6-11 9-15 2-2 11-6 14-6 8 0 37 7 45 10 6 2 6 9 17 9 10-1 22-8 30-4 1 2 0 4 0 6-10 23-38 18-41 19-7 4 0 21 4 26 1 1 3 2 4 3 0 2 0 6-2 9-10-2-11-7-17-14-1-1-3-2-4-3-3-7-1-16-5-23-2-3-10-9-13-11-2-1-8-5-11-4-10 3-18 13-28 17-5 3-23-4-31-4-12 1-26 3-37 6-7 2-18 9-24 9-13 1-37-15-48-15-4 0-6 2-8 6 23 10 5 15 3 21-1 3 0 15 1 19 4 4 14 7 19 8 2 0 4-1 7 1 0 4-3 8-3 12 4 5 11 11 3 16-7 0-6-8-12-12-4-2-9-1-13-3-5-3-2-5-10-5l-2 3c2 7 10 13 13 19 2 5 1 12 5 15 2 1 5 2 8 2 3 1 10 2 13 1 21-4 33-36 45-25 1 1 2 4 2 6 2 11 2 20-2 31-2 4-12 21-15 24-4 4-17 2-22-1-2-2-4-8-6-11h-5c-3 2-9 8-10 12-4 9-4 48 7 53 2 1 9 2 12 2 4-1 23-35 29-42l4 3c0 8-14 32-12 39 1 3 9 2 12 4 1 1 3 8 3 10 1 3 3 17 8 17 6-1 5-26 7-30 4-11 22-23 27-6 1 3 5 20 4 23 0 1-4 3-5 5-5 7-7 17-13 24-10 10-51 22-31 44l4 1c3-2 9-9 13-9 5-1 12 4 17 4 3 0 7-2 12-1-6 7-19 9-25 15s-6 15-13 19-10-15-19-8c-2 1-8 13-8 15 0 8-6 23-16 15-2-10 9-24 9-25l-2-5-4-1c-3 1-24 22-25 25-4 6 0 23-1 29-2 11-20 61 3 58l2-2c3-14 3-30 7-43 1-4 8-7 12-4 1 0 4 5 4 7 1 1 2 6 2 6l4 2c6-2 5-8 8-11h4c3 4 1 10 10 12 16-9 6-30 12-41 4-2 8-2 12 0 10 5 2 12 2 21l1 2 5 1c4-3 8-8 12-11 13-8 2 10-3 15-1 1-2 8-2 9 1 4 10 11 12 15 0 6-11 29-16 34-2 3-11 5-11 8-2 6 11 35 4 39-1 1-20-14-26-1l-5-1c-5-8-3-17-13-22l-5 1c-1 7-6 57-4 64 2 5 10 21 14 26 8 11 21 17 30 26 3 4 5 13 9 15 21 15 46 24 68 38l1 5c-2 5-7 10-9 16 1 10 9 16 19 18l4-2c1-6 0-13 1-20 2-2 7-4 10-2 4 2 13 22 28 26 11 3 59 8 68 4 7-4 13-10 20-13 11-5 26-4 37-9 3-2 6-9 9-11 7-5 17-7 23-13 22-19 32-48 49-70 5-5 13-8 18-13 3-4 4-13 8-17 6-6 16-5 21-13 2-4 9-18 9-21-1-2-9-1-11-2 0-1 1-5 1-5 3-4 37-14 44-20 4-3 2-12 8-16 1-1 6-1 7 0 4 3 5 14 13 11 2-1 7-7 10-9 8-5 18-4 23-15 5-9 6-25 10-32 5-8 9-5 13-9 1-2 3-8 3-10 0-5-3-21-5-26-5-8-15-14-19-22-1-2 0-7 1-9 10-2 19 3 22 2 2-1 3-9 3-12 0-7 0-22-3-28-2-3-6-6-7-9-3-11 3-18 13-22 3-1 10-3 13-2 6 5 4 24 3 32l-3 2-2-3-5 1c-1 1-1 2-1 4 0 0 8 20 9 21 1 9 1 54 4 59 2 5 22 33 25 36 4 3 20-9 38 13 4 20-11 9-7 31 4 21 13 42 16 64 0 2-1 4 0 6 0 10 3 43 7 50 3 5 19 6 22 8 7 5 3 11 7 15 8 9 19-18 35-11 3 23 8 44 3 68-1 7-12 35-12 38 0 4 5 8 5 11 0 4-4 18-3 25 3 0 7-1 10 0 2 1 7 6 9 8 16 25-5 47 10 66 7 8 12-3 15-5 2-1 9-3 10-1 3 3 7 24 9 30 3 7 8 13 11 21 5 13 3 26 15 37 7 7 22 12 28 19 5 7 14 40 19 42 4 2 24 7 26 9s-1 17-2 20c-1 4-3 9-5 13-2 11-16 4-20 10-2 17 22 20 12 44l-3 2c-11-3-21-8-32-10l-4 2c-3 7-2 12 1 19 13 31 22 22 42 42 4 3 10 14 13 19 3 6 4 14 8 20 2 4 15 18 16 19 2 8 0 28 0 37-2 14-9 21-9 26 10 5 55 10 65 8 7-1 34-23 61-26 6-1 26 4 27 4 5-1 11-8 13-13 12-27-19-52-10-79 4-11 21-47 32-51 4-1 12 2 15 0s6-20 8-25c3-2 52-5 62-7 15-3 43-18 58-14 5 6 6 18 16 17l4-4c3-16 6-33 9-50 1-9 2-20 5-28 7-22 28-64 27-84 0-13-8-35-2-46 3-2 7-2 10-4l2-5c0-6-3-6-7-9 1-5 3-11 3-16 0-9-6-21-3-29 1-5 6-9 8-13 12-33 2-30-10-51 0-10 7-17 7-25s-8-18-8-26c1-13 13-16 7-33-2-14-4-13-9-25 2-9 13-12 9-29-1-4-7-9-9-14-3-6-7-25-6-32 3-3 7-4 9-7 9-10-10-26-12-37 8-6 27-9 37-14 3-6-1-19 2-22 3-2 17-1 21-3 3-1 4-5 6-7 11-10 30-15 24-35 0-4 1-13 3-16l6-1c8 8 10 23 22 24l3-1c6-14 8-32 17-45 6-8 20-12 25-19 9-14-19-10-11-27 7-5 17 0 24-4 3-8 2-17-5-22h-6c-5 3-7 10-12 13-10 7-42 16-48 25-2 4-6 10-11 10-11 2-24-3-36-2-5 1-10 4-16 4 0 0-6 1-7-2-2-2-2-13-4-15-7-2-14-2-21-4-2 0-14-13-19-14-3-1-14-3-17-1-2 1 0 8-2 9-3 2-14-1-18-1-10 1-19 5-28 6-10 1-12-4-18-5s-10 0-16-3l-2-3 1-2c7-2 18-1 24-3 13-5 21-16 36-18 10-1 21 1 31 1 7-1 14-3 21-4 2-1 6-2 8-1 6 0 17 8 23 7 7-1 9-20 20-7 2 2 7 5 9 5l4-3c1-11-1-22 0-33l3-1c20 0 13 32 14 46l4 5c4 1 11 3 15 3 3-3 6-3 10-4 1 0 12-12 14-14 5-4 12-5 17-9 14-12 25-31 37-45 8-10 20-13 29-20l2-4-2-3c-8-2-16 1-23-3 3-16 10-14 21-21v-3c-5-7-14-11-18-19-3-4-5-19-7-21s-8 0-9 1l-2 5-2 2c-9-1-25-12-33-16-13-5-5-12-2-19-2-12-26-11-34-17-3-2-4-10-7-14-4-5-11-9-16-14-3-3-7-13-10-15-2-1-8-1-10 0-4 1-9 11-13 14-7-3-12-13-13-15-2-2-10 1-15 1-10-1-29-10-31-21-1-5 7-16 6-20-1-7-16-18-18-27-6-29-6-59-11-88-2-15-14-30-17-46-1-4 1-20 3-23 5-10 20-2 27-1 17-8-4-24-9-33 1-8-8-19-8-28-1-12 4-40 11-51l3-6-1-4c-3-4-8-6-12-10-6-6-26-32-27-39 0-2 2-6 3-8 2-7 1-9 8-12 14 0 10 7 19 11 25 3 43-32 41-53-1-6-11-19-7-24 17-20 33 4 40-41-1-1-4-5-4-6 2-12 22-63 37-64 8-1 17 16 22 0 6-16 3-34 15-47 4-5 5-10 8-14 6-1 15 9 18 7 8-6 24-38 32-49 4-4 10-7 13-12 2-1 4-6 5-7 9-7 18-14 25-22 19-27 20-64 31-94 7-20 22-31 34-48l1-5c-2-3-7-4-8-7-4-8-2-17-7-25-5-2-14 0-18-2s-18-14-20-17c-1-3 4-16 2-21-2-7-8-4-6-15 0-1 5-6 6-7 4-6 9-18 11-25 4-17 8-38 8-55 1-20-15-19-21-33l1-3c9-3 26-4 29-16 1-1-3-12-2-14s6-2 8-3c2-2 3-12 5-13 3-2 20 1 28-3 6-18-9-18-13-30-2-6-2-23-1-30l3-2c6 1 11 7 18 5-6-5-3-15 2-19 21 2 23 20 38 23 5-3 9-10 15-13 4-2 10-1 14-3 7-2 14-9 21-10 20-5 24 14 45-8 12-8 11-7 28-11 16-3 12 16 20 24 3 3 24-5 35 1 9 5 15 14 23 18 2 2 12 3 13 4 14 13 10 40 13 57 2 14 7 33 12 47 6 17 16 20 18 25 6 13-21 1-26 2-11 1-32 15-37 25-12 23-1 48-8 71-4 10-8 24-13 33-6 10-24 35-26 43-2 11-5 23-9 34-4 12-13 23-17 36-3 6-2 14-5 20-2 5-6 8-8 12-3 5-14 33-15 34-2 2-3 3-5 4-7 0-15-1-23 0-9 7 3 43-9 48-4 2-12-3-19 0v4c5 6 15 10 19 17 2 3 4 13 3 16-1 7-19 34-25 36-15 5-29-14-40 5-1 10 10 16 10 26-3 2-14 1-16 4-3 6 8 22 2 33-2 4-6 6-8 9-3 5-10 28-11 33-1 7 14 55 18 62 6 10 22 16 31 39 4 11 2 39 1 51-5 25 14 18 26 29 6 5 23 32 25 40 2 13-6 25-6 37 1 10 7 19 9 28 2 13 3 28 2 41 0 11-5 22-5 32-1 3 0 9 1 12 4 10 11 18 14 28 6 19 0 43 19 58 16 12 21-21 34-14 3 2 7 13 9 14s5 0 7 1c4 0 10 3 15 7 5 1 44 9 45 10 6 4 9 29 21 25 13-5 37-41 45-35 8 13-8 41 8 54 6 6 21 6 22 8 2 3-3 12-2 15s7 7 8 9c-1 10-9 17-14 25l1 3c15 7 29-26 40-34 10-8 24-12 35-18 15-9 32-24 49-29 4-2 13 2 18 2 10-7 10-22 19-30 10-10 27-14 38-23 13-10 23-27 37-36 18-11 28-2 35-4 16-5 15-25 19-29 6-5 14-5 20-9 9-5 13-14 24-17 21-7 21-16 38-26 22-14 28-6 49-10 18-3 26-18 40-24 2-1 6-1 8-1 2 1 5 1 6 0 5-2 22-15 25-19 7-7 10-17 16-25s14-16 22-21c12 2 25 39 21 50-1 4-6 6-9 7-8 16 34 10 38 12 9 5 17 24 27 27 27 9 55-19 81-17 11 0 12 15 22 18s20 3 30 5l2 3c-1 3-3 10-5 12-12 14-74 7-101 21-19 10-20 35-32 51-7 9-24 0-33 5-5 3-2 24-4 29-4 6-22-2-27-2-25 3-12 37-10 53 0 5-1 17-4 20-13 16-53 25-72 25-19-1-37-9-55-9-6 0-13 5-19 6-12 1-24-3-36-3-10 0-21 1-30 3-8 2-14 9-22 11-5 0-15-2-22-1 0 5 1 17-1 21-5 15-21 7-30 10-2 1-4 4-7 4-6 2-32-2-35 2-1 3 0 16-2 19-3 3-27 5-35 12-5 4-7 11-12 16-3 3-11 5-14 8-3 4-10 24-11 25-7 5-16 5-24 9-5 2-18 9-20 14-3 6 0 30 0 39 4 6 12 4 13 8 1 2-3 10-3 13s3 31 4 33c1 1 3 2 5 2 5 2 13-1 19-1l3 4c-1 7-14 12-11 23 3 6 24 37 30 43 6 7 32 26 42 25 4-1 16-9 19-12s4-7 7-10c6-5 16-6 24-3 1 0 4 1 5 3 1 4-8 70-9 83-1 12-1 26 0 38 3 10 5 22 12 29 1 2 7 14 9 17 5 10 13 18 18 28 2 5 4 18 3 23 0 14-8 48-17 59-6 9-28 26-38 29-13 4-31 9-44 5-4-2-16-7-19-9-9-8-7-31-12-43-13-35-41-35-71-49-3-1-8-4-10-6-8-7-9-29-9-29-1-1-11-2-12-1-4 1-18 8-21 11-6 5-8 13-14 17-36 28-71 23-72 80-1 16 6 48 2 62-5 19-26 56-27 74 0 4 2 9 3 13 2 21 1 42 4 63 4 33 16 60 30 89 9 18 10 41 17 60 6 16 16 31 22 47 7 20-1 24 19 41 3 12-6 25-5 38 2 17 30 35-4 48-8 4-25 8-33 4-2 0-8-4-9-6-1-5 0-39 1-46 1-5 7-9 8-15 2-6 9-40 9-45 0-2-5-7-7-7-2 1-2 8-3 10-3 7-6 13-9 20-5 15-15 66-20 74-4 6-13 13-20 15-2 1-12 11-17 13-9 3-20 1-29 2-12 11-2 22 0 35 0 6-1 14-1 21l2 2c9 11 24-9 35-10 3 0 8 1 11 1 0 10-15 20-21 28-10 16-10 35-28 47-9 17-27 39-46 45l-6-4c0-5 1-16 3-20 8-17 24-31 34-46 2-3 4-6 5-11-15 0-46 60-78 63-11 0-22-3-33-3-3 0-6 2-9 2-4-1-15-4-18-6-13-6-44-39-27-52 18-15 49 22 61 18l2-3c-3-11-27-19-37-25-2-2-4-4-6-5-2-2-23-12-25-13-13-4-48-6-60-1-33 12-74 28-105 45-9 6-31 27-39 35-4 4-6 10-10 13-12 9-29 14-41 24-14 10-25 24-39 35-12 9-26 17-39 24-11 5-23 7-33 13-15 8-58 31-69 40-8 7-12 37-19 46-2 2-7 1-8 2-2 1-3 5-4 6-1 4-3 12-3 15 1 13 11 17 5 33-23-7-14-28-49-27-4-1-35-5-36-6l-4-2c-2-1-18-24-20-27-5-9-6-20-10-30-1-3-4-6-5-9-1-2-2-6-3-7-5-6-7 1-11 0-7 0-49-14-57-17-10-5-24-26-25-26-4-2-24-2-30-1-3 0-10 3-12 3s-5-2-6-3l-1-7c6-6 25 1 33-7 11-11-22-7-25-7s-6-1-9-1-11 4-13 6c-11 10-40 61-52 65-6 2-12 0-18 1-2 0-3 2-5 3-3 0-6-1-8 0-17 7-28 24-36 39-3 4-3 10-6 14-1 1-5 4-6 4-22-1-9-29-72-6-5-2-10-7-11-11-1-8 16-25 20-32 3-6 11-26 11-33 1-3-2-17-4-21-1 1-1 1-3 2-1 1-4-1-7 0s-10 10-14 12c-5 3-10 2-15 5-2 1-3 3-5 4-5 1-32-22-39-25-13-6-13 7-17 8-9 2-6-11-14-15-9-5-9 4-15 6-3 2-23-5-24-8-2-6 18-13 21-22 1-2 2-8 1-9-2-3-16 2-21 0-2-4 1-3 3-5 1-1 2-3 3-4 3-2 13-5 11-12 0-1-10-12-11-12-5-3-9 6-15 3-5-3-7-8-13-10-4-2-19-3-24-3-5-4 4-16 8-17s22 7 23 3c1-2-7-16-9-18-7-8-31-18-31-29 0-17 22-9 27-25 2-5-14-35-11-42 2-4 12-6 8-13-3-7-17 7-20-7 0-5 11-13 16-14 3-1 9 0 12-1 2-1 4-7 4-9 2-16-12-16-23-21 1-2 2-2 4-3 2 0 16 5 20 5 5 1 22-2 25-5 3-2 4-23 1-25-2-1-6-2-7-3-1 0-1-2 0-3 1-2 10-7 12-7 7-1 16 9 20-1 7-14-3-23-3-36 0-9 15-51 22-53 2-1 8-1 10 1 6 6-6 10-7 15 0 2 2 7 3 8 2 1 7 1 9 1 3-2 1-10 8-12 12-2 7 11 12 14l4-1c1-1 1-3 1-5 1-2 2-3 3-5 3-6 3-13 6-19 6-11 26-24 12-37-3-3-20-12-24-11-9 2-16 11-25 12-19 2-12-24-23-23-9 0-12 23-17 16-1-18 12-22 13-29s-19-12-14-18c2-1 7 1 9-2 1-1 1-34 0-38-2-11-32-19-34-26-4-15 35 4 42-3 12-11 23-61 19-76-4-11-14-16-14-30 0-15 10-27 15-40-1-4-15-1-17 1-8 5-11 15-17 22-9 9-28 4-39 10-5 3-39 60-46 71-7 9-26 17-37 20-8 3-18 1-26 3-7 2-22 15-24 15-7 1-14-8-20-5-8 3-30 32-34 41-2 3-10 30-10 33 1 7 22 14 28 20 4 5 2 12 10 13 19 4-13-31-13-33 0-3 2-7 4-9 1-2 3-3 5-5 7-7 10-18 18-25 5-3 20-12 25-13 15-4 31-1 46-5 6-1 11-5 17-7 5-1 11 1 16-1 7-2 12-7 19-9 2-1 13-1 15 0s4 8 3 10c-1 1-13 7-16 8-4 4-11 15-15 16-4 0-10-17-28-8-11 5-19 17-18 29 0 7 4 29 7 35 3 8 18 20 11 31-2 4-11 5-14 2-3-2-2-22-8-20-1 0-2 1-3 2 0 2 1 6 0 8-1 4-11 10-14 5-1-1-1-4-1-5 1-6 3-6 5-10 2-8 3-28-9-27-9 2-7 12-11 18-4 4-10 5-14 10-4 6-2 8-2 14 0 5-2 17-8 18-4 2-13-12-17-15-8-4-22 10-32-1-2-2-2-4-3-6-2-2-8-6-8-9 0-2 8-9 6-11-3-2-12 5-13 7-2 4-3 16-3 20 0 5-1 17 1 21 4 9 21 20 23 28 1 2-2 9-3 12-6 7-15-5-20 0-4 3-2 26-2 31 0 8-3 15-1 22 0 2 2 5 3 7 2 3 4 4 7 1 3-2 1-20 11-11 3 2 13 19 13 22 1 7-11 28-20 25-10-3-5-15-10-22 0 6-1 14 2 20 1 2 4 4 4 7 3 17-15 55 0 67 17 12-1-19 22-14 15 4 10 16 16 26 4 7 17 6 21 12 14 15 8 80 7 101 3 20 7 42 21 58 9 10 22 12 23 29 0 2-2 11-4 13-6 9-55 21-33 39 9 1 16-10 27-8 12 3 6 15-1 19-4 2-13 2-15 5l-1 5c11 20 27 6 29 22 1 2 0 9-1 11-2 1-9 0-10 2-2 1-4 7-4 9 1 3 6 7 9 8 11 4 24 2 36 6 8 2 43 40 51 47 2 1 4 2 5 3 3 4 1 11-3 15-7-1-23-3-28-7-11-6-17-26-28-31-16-6-29-4-44-6-7 0-14-3-21-3-10 1-24 34-23 44 0 4 4 8 4 12 0 1 0 6-1 7-2 1-5 0-7 0-4-5-19-8-23-2-1 9 4 13 4 21 0 2-2 9-3 11-5 8-23 0-30-2-7-9 5-37-10-53-9-8-64-1-77 1-9 2-24 9-30 14-7 6-6 23-10 31-2 3-7 3-7 11 2 10 23 14 27 23-2 9-7 12-13 16h-3c-2 0-6 0-7-1-4-1-22-14-25-17-4-5-10-24-15-26-3-1-23-2-27-2-14 1-30 10-42 16-9-2-21-6-30-6-4 0-15 3-19 5-11 5-45 30-54 39-3 3-16 20-17 23-1 2-1 5 1 7 7 10-1 29 5 36 7 8 27 2 34 11-1 6-3 28-1 34 3 7 17 10 20 17 2 2 6 8 6 10 0 3-3 12-5 15 0 3-3 11-4 14-3 4-15 14-19 18-3 3-12 16-16 20-2 1-10 4-12 5-4 1-17 2-21 1-6-1-25-7-31-9-3-2-12-11-12-14 0-2-1-4 0-5 2-5 8-10 9-16 0-4-5-14-5-18-1-6 1-20 5-24 7-5 22-8 28-14 2-2 3-12 2-15s-8-10-11-12c-4-3-10-3-13-6-9-7-3-21-7-23-3-1-13 6-16 7-8 1-15-10-17-5-3 6-16 77-20 91-2 9-5 18-9 26-3 2-4 5-6 9-5 9-31 57-37 61-7 5-19 8-27 12 0 5-3 28 1 31 5 5 42 16 51 22 2 1 5 5 7 8-1 1-1 3-2 4-8 5-43 21-53 24-2 0-10-1-12 1 0 1 1 4 1 4 4 5 30 9 34 18 4 6-5 8-6 12 0 2 4 7 5 9 1 3 7 19 7 21s-2 4-3 5c-20 6-21-25-40-27-12-1-20 12-30 9-4-1-20-7-23-9-2-2-3-5-5-6-5-3-40 3-45 3-21 10-50 21-68 34-2 2-37 15-42 17-17 3-102 22-111 27-3 2-18 13-19 15-11 13-1 49-2 65 0 6-5 21-4 25 0 2 3 4 3 7 0 2-5 13-6 16-11 19 6 27 2 33-2 3-12-4-15-2-4 2-13 18-15 22-12 9-25 19-38 26-14 6-31 11-46 15-4 1-8 1-12 2-28 8-73 25-93 47-10 10-11 28 3 35 3 1 9 0 11 1 8 5-2 8-6 8-10 5-20 9-29 14-7 3-16 11-24 13-15 4-25-12-38-16-11-3-24-1-35-4-16-3-32-12-48-14-8-1-17 10-25 0 0-1-1-16-2-19-3-9-17-19-11-29 4-7 17-10 15-20-1-1-2-4-4-4-2-2-17-4-20-3-9 1-17 9-26 9-12 1-26-7-34-15-2-1-7-8-9-9-3-1-5 1-7 3-2 7 4 11 4 17 1 17-9 23-1 45 3 9 11 6 14 11 3 4 4 19 6 25 2 4 11 12 12 16 1 6-3 20-2 27 0 9 4 19 3 28-1 14-9 28-11 43-1 3 0 11 2 14 3 4 18 8 16 15 0 1-5 8-7 9s-8 2-10 2c-9-2-36-6-43-11-5-4-4-22-13-20-10 3-20 17-32 20-4 0-16-6-19-8-2-1-5-5-5-6-1-2 0-5-1-6-2-1-18 2-21 3-18 7-20 33-34 26-16-9-16-28-24-42-2-5-7-8-9-13-4-7-1-18-10-22-4-1-17-1-21-3-3-1-1-9-10-8-4 0-10 5-14 5-7 0-14-9-22-3s4 16-8 28c-1 1-3 3-4 3-8-1-24-13-25-13-4-1-13 10-17 11-9 4-15-10-22-13-11-5-19 2-27 3-6 0-14-4-19-3-8 1-16 8-24 11-14 4-20-2-33 10-5 4-18 27-11 33 2 1 15 5 18 5 13-1 20-9 43-5-2 4-4 7-5 12 10 4 12 1 19 13-1 4 0 4-4 6-8-1-41-8-45-6-2 3-3 12-1 15 6 2 5-1 8-1 7 0 26 6 31 11 1 2 3 5 4 7 0 5-2 14-7 15-6 2-42-10-52-10-2 0-5 3-6 4v3c1 1 2 1 3 1 0 1 3 6 4 7 5 7 12 15 19 20 2 2 13 3 14 6 3 9-13 23-2 28 25 11 12-15 23-15 4 0 28 5 32 7 6 3 8 14 18 18 9 3 19 4 28 8 10 4 18 11 27 16 2 1 5 1 7 2 5 4 8 11 13 14 3 3 11 5 13 7 4 4 2 10 9 13 4 2 21 6 25 6 8 0 29-18 33-3 1 2 1 9-1 11s-14 2-18 4c-1 0-7 5-6 7s12 5 14 4c1 0 3-1 4-1 7-2 42-3 45 4 1 3 1 10 0 12 9 11-9 10-11 12-7 9 11 24 17 29 2 1 9 5 12 4 4 0 12-7 16-9 11-6 15-4 27-1 3 1 7 3 10 4 3 2 11 10 10 14-1 8-20-2-24-3s-9-2-13-3c-13 0-6 13-9 19-2 5-7 4-9 11 5 6 35 7 33 13-3 12-38 41-32 54 3 6 19 17 25 23 11 15 3 42 16 52 2 2 10 3 13 5 5 2 19 11 23 15 3 3 5 12 8 14 4 3 17 4 22 6 6 3 10 9 15 13h3c5-1 13-1 14 5 2 10-17 19-17 26 0 8 15 10 15 20 0 4-5 10-5 15-1 9 4 15 1 26l-3 1c-2 0-8-1-10-3-5-7-1-23-20-35-3-1-9-1-9 3-1 4 2 22 3 25 3 6 11 10 14 15 2 5 0 12 4 16-3 11-7 9-3 23 6 7 19 8 27 13 26 16 40 40 41 71 0 2 1 13 2 14 3 11 3 23 7 34 3 11 13 22 15 34-4 0-10-3-13-6-4-3-9-6-12-11-14-18-8-56-19-74-5-8-15-14-21-21-2-3-6-15-8-16-1-1-6 0-7 1-2 2-12 23-13 27-15 40-23 82-30 124-1 4-5 30-2 31 2 0 7-5 8-7 4-7 0-12 11-15 4-2 11 16 11 19 1 6-10 4-14 7-4 4-15 27-18 33-19 48-27 98-41 147-4 10-15 43-20 51-3 4-12 6-15 9-3 2-4 5-6 7-8 7-20 11-30 14-15 13-14 5-28 7-6 0-12 4-18 4-20 1-46-11-64-19-7-3-13-7-20-10-3-1-13-2-15-4-3-3-2-9-5-10-6-5-33 5-38 9-3 2-7 9-8 9-2 1-5 0-6 0-2-1-4-6-6-8-1-2-4-3-6-4-8-3-45-16-49-20s-3-13-9-15c-2-1-14-2-16-2-7 2-14 9-20 10-16 2-2-12-21-11-10 1-20 6-30 6-23 0-47-4-71-8-16-1-31-3-46-9-19-6-39-12-57-21-4-2-7-7-12-9-4-2-15-2-18-4s-4-9-6-11c-6-4-27-4-35-7-11-4-10-18-17-22-2-1-12-3-14-2-5 3-3 14-15 14-17 0-33-8-50-9-6 0-13 4-20 3-15-2-29-8-43-11-13-3-38-7-40-6-1 2-8 0-12 0-18-2-31-1-43-17-5-6-11-23-17-27-7-5-23-4-30-8-3-1-6-11-7-12-3-2-18 3-22 4-9 0-8-11-16-10-18 3-11 18-23 22-8 3-35 4-40 11-1 2-5 12-4 15 1 7 18 10 14 19-1 1-4 7-6 8-5 2-23-7-29-7-7 0-14 5-21 6-6 0-27-1-33-3-5-1-8-8-14-8-2 0-13 3-14 5-2 2-2 11-4 12-6 3-35 1-36 5-1 5 8 12 3 15-2 2-21 3-26 6-3 3-7 14-9 19-1 1-4 8-3 9 2 5 15-2 18-2 2 0 6 3 6 5 1 8-5 28-3 35 1 3 8 4 10 4 6-1 30-12 34-7 3 3-9 8-11 10-15 10-29 16-34 34-1 2-2 6-1 7 3 5 23-5 26-7 5-3 7-10 13-11 4 0 12 0 14 5 1 1 1 3 1 4-1 2-9 5-11 8s-1 14-3 18c-2 5-15 13-12 20 2 6 31 3 28 12-3 10-25 8-30 15-1 1-3 5-2 6 0 1 2 1 2 2 6 0 12-1 17-2 3-1 10-5 12-6 2 0 6 2 7 3 0 2 0 7-1 8-3 3-16 5-19 8-5 4-8 11-13 15-6 5-16 6-22 11-2 3-16 38-15 39 0 1 3 0 4 0 3-1 5 1 8 0s10-6 20-4c-9 13-26 18-32 28-7 10 5 38 4 51 0 20-5 40-6 59-1 16 6 28 11 42-2 10-5 21-7 31-2 5-3 12-6 17s-31 33-18 38c7-4 19-28 26-28 1 0 3 4 3 5-1 2-4 5-4 7-2 5-2 20-5 23-5 4-22 12-28 16-10 7-21 31-26 43-2 3-3 8-5 12-1 2-4 2-5 5-1 2-4 17-4 21 3 8 15 7 15 17 0 2 0 8-2 10-5 4-16-5-26 10-12 18-18 41-32 57-5 6-10 13-16 18-1 1-20 34-23 39-2 2-5 6-7 7-6 3-28 1-30 6-1 2-1 18-2 22-3 14-5 29-10 42-5 16-42 65-15 73 4 2 17 4 21 3 4 0 17-6 21-8 19-10 7-59 77-53l3 3c1 19-36 10-41 24-3 9 3 28-2 37-3 5-20 12-26 13-14 3-28-7-40 9l-1 2c2 2 4 2 5 4 7 9 2 22 2 33l2 3c19 7 28-11 45-13 5-1 17 7 21 7 3 0 13-18 17-2-2 20 14 15 15 28-6 7-35-4-39-1-2 1 2 24-9 54-3 8-19 30-18 35 0 9 7 18 9 26 1 8-14 72-17 84-1 5-6 18-9 22-12 14-33 21-40 39-1 4-4 15-3 19 0 3 4 12 6 15 13 11 38-7 51-10 6-1 23 0 28 1 9 3 15 10 24 13 8 2 18 0 26 2 23 6 34 35 63 36 5 1 44-18 50-21 2-2 5-5 8-6 4-1 22-3 27-3 5 2 16 5 21 5 6 0 29-6 31-5 9 1 15 16 23 10 2-2 4-11 5-14 2-2 7-3 10-2 11 6-9 21-2 29 2 2 9 5 12 7 2 3 3 8 6 10 6 7 16 11 24 16 12 9 29 39 35 53 6 13-3 12-5 19-2 5 1 16 4 20 7 9 33 20 18 34-6 1-16-3-20 0-1 1-1 3-1 4 0 2 5 22 6 25 3 7 14 26 19 31 8 8 40 35 50 40 3 2 9 0 12 2 7 3 11 8 16 12-2 7-7 45-7 50zm3609-7648c3 1 12 2 14 4 1 0 0 3 1 5 2 4 9 10 14 9 3-1 11-6 13-9 2-2 3-6 5-8 3-4 9-6 5-12-2-1-9 0-10-1-3-2-3-11-5-13-3-1-13-1-17-1-3 0-9 1-10 2s16 12 12 16c0 1-4 1-5 0-6-1-13-10-18 0-1 3-1 5 1 8zm-130 174c7 3 17 3 22 8 1 1 1 6 3 7 2 2 5 0 7-2 1-1 1-6 1-7 2-8 8-22 6-31-1-4-6-17-8-19-1-2-7-3-9-2-2 2-4 12-6 16-7 11-18 11-18 28l2 2zm-65-9 2 3c5 3 7-7 14-10 9-3 31-7 36-15 4-6 25-47 25-56 0-3-5-8-8-9-9 4-5 22-12 26-5 2-18-6-21-1-2 3 2 7 2 9 0 4-3 6-5 9-1 1-2 3-3 3-6 3-14-1-20-1-8 0-8 9-14 12-3 2-9 1-9 6-2 11 16 4 19 11 0 0-2 8-2 9-1 2-3 3-4 4zm-163 150c-4-2-9-2-12-4-2-1-4-5-6-6-7-3-21 0-25 6-4 5-4 12-6 17-3 5-10 9-7 14 2 4 20 21 25 19s24-19 27-24c3-4 4-16 4-22zm-74 53c0 8 9 7 8 14-1 6-13 5-17 8-6 3 1 10 0 15-2 5-11 6-9 14l4 4c3 0 14 0 17-1 3-6 11-6 16-11 4-6 12-21 10-28-1-2-4-8-6-9-2-2-12-4-15-6-2 0-3-1-4-1s-3 0-4 1zm-106 173c3 6 13 2 18 2 2 0 9 2 11 0 4-4 10-22 15-27 3-3 11-2 14-4 1-1 2-2 3-2 3-3 13-4 15-8 3-5 7-26 7-32 0-7-8-8-10-13-3-7-1-31-13-26-4 2-8 5-12 7s-16 3-18 5c-8 5 2 16-3 20-4 3-17 3-22 10-1 1-1 2-1 4s6 8 6 11c1 3 0 12 1 15 1 2 8 5 9 7 1 3-2 13-4 16-5 9-16-1-16 15zm-101 31c-1 4-1 16 4 16 1 0 3-1 3-2 2-3 0-6 3-10 2-2 5-4 7-6 6-8 20-32 23-41 0-3 0-17-3-19-2-1-8-1-10 1-2 3-23 45-25 52-1 3-2 6-2 9zm-17 33c1-6 3-11 0-17-3-4-15-13-20-9-7 7 12 22 3 32-2 2-10 8-13 9-5 1-16-3-18 0-3 2 0 4-1 6 0 7-7 21-6 27 0 1 4 2 5 2h5c2-1 3-3 4-4 5-2 25-14 29-14 2 0 4 2 3 5-1 2-4 3-5 5-1 1-5 15-5 17 0 1 2 3 3 3 1 1 5 2 6 1 4-2 16-12 18-16 3-4 7-17 6-21-2-7-12-15-14-21-1-1 0-4 0-5zm40 78c1 2 3 6 3 8-1 4-9 18-10 20 0 5 15 3 18 1 6-8 7-33 13-36 6 1-1 15 4 17 7 3 9-18 10-21s3-12 5-14c3-4 12-7 16-10 2-2 5-7 5-9 1-5 0-21-1-26 0-4-4-17-6-20-1-1-7-2-8-2-3 1-11 8-13 10-15 13 4 25-8 37-1 1-6 4-8 4-1 0-3-2-4-3 0-4 4-13 4-17-1-7-10-8-10-11-2-5 7-31-5-27-4 1-12 6-12 10-1 7 3 16 3 17-1 18-12 54-19 71 0 2-2 3-2 5-2 3-2 6-3 8-2 3-3 5-4 8-2 3-6 15-3 18 1 0 5 0 5-1 4-2 6-13 8-17 2-2 3-5 5-8 3-4 10-17 17-12zm-541 1104c-8 3-16 4-24 7l-8 8c-1 1-1 3 0 4s17 6 20 6c10 2 19-6 28-10 3-1 8-1 10-3 4-2 5-7 9-10 1-2 4-2 6-4 1-1 7-8 4-11-4-4-18 0-23-1-1-1-2-4-3-4-5-1-19-1-23 3-3 2 3 9 4 13v2zm-361 827c1-1 3-3 4-3 1-1 3-1 3-3 0 0-3-1-4-1-2-2-8-6-10-7-2-4-1-12-7-13-2-1-6 0-7 1-1 2-4 10-4 12 1 4 7 10 9 14s-3 16 0 18c1 1 5 2 6 1 2 0 6-7 6-9 1-5-1-6 4-10zm1026 1151c3 7 14 8 19 2 1-2 2-8 1-10-3-5-13-12-15-18-2-5 2-23 1-27-1-3-15 1-20 0-15-5 2-26-23-16-10 4-4 13-7 20-2 4-9 7-11 10-3 3-3 13-2 16 3 7 8 12 11 19 1 2 2 5 3 7 2 2 9 9 11 10 10 6 21-17 32-13zm-210-74c4-6 15-19 15-26 2-12-45-19-47-15-1 1-2 9-1 11 4 10 14 18 19 28 5 9 0 16 2 25 0 1 4 7 5 8 2 1 7 1 7 0 4-6-2-20-2-26 0-1 1-4 2-5zm-50-15c-1 1-3 4-4 4-2 0-11-4-13-5-9-8-16-21-25-28-6-5-23 6-23 12-1 7 12 15 10 19-2 2-12 10-13 11 0 3 16 9 19 10 3 2 6 5 10 7 5 1 23 6 28 5 5 0 12-7 17-8 4-1 14 3 16 2 2 0 5-3 5-5s-5-13-6-14-2-1-3-2c-2-2-7-11-9-12 0-1-3-1-3 0-1 0-2 3-3 4h-3zm-231-137c1 1 3 2 3 4 2 3 2 9 3 13 2 4 6 7 7 11 3 8 2 25 8 30 6 6 14 5 20 9 8 5 11 16 21 19 11 3 26 5 37 5 5 0 18-9 19-12 3-8 1-22 3-30 2-6 11-10 8-18s-12-15-14-24c-2-8 11-11-9-29l-4 1c-2 4-3 13-5 16-2 2-11 7-13 8-14 3 7-20-10-26-3-1-15-3-19-2-13 3-24 14-37 18-4 1-9-1-13 0-2 1-5 4-5 7zm140-53 2 4c3 1 11-1 13 2 4 6 18 41 20 48 3 12-8 17 2 37 1 1 3 4 4 4 9 4 25 2 36 5 5 1 21 5 25 7 7 4 6 26 21 36 3 2 12 5 15 4 4 0 13-8 16-11 4-9-7-23 0-33 6-9 18-18 28-21 2-1 8-2 9-3s2-3 2-4c5-20-18-18-25-23-3-3-6-10-6-15 0-3 4-20 8-21 7-2 19-11 24-16 12-15-3-32-5-45-1-8 1-24-1-31-2-5-13-14-18-17-9-2-56 15-49 25 1 2 15 7 19 13 8 14 5 44 2 59-2 2-5 3-7 4-9-4-4-20-4-27 1-7-2-21-9-22-16 5 4 30-15 44-7-4-8-14-12-20-2-2-7-5-7-7-1-5 4-20 4-27-6-3-24-1-31 0-2 6 6 12 3 17-2 3-15 9-19 13-3 3-10 15-13 17 0 0-28-8-32 4zm488 54c-4-2-8 0-9 4-2 5-7 32-3 37 7 12 30 16 43 19 18 4 20-29 17-32-1-1-16-4-20-6-10-6-20-18-28-22zm-54 301-2 3c-6 1-12-4-18-3 0 1-3 4-4 5-1 4 4 9 6 12 1 2 1 6 3 6 1 1 25 2 28 3 2 0 7 1 8 1 1-1 9-5 10-6-2-6-6-12-10-17-4-4-26-26-29-28-5-3-11-5-16-8-2-2-11-7-14-4-1 1 5 16 7 17s9 0 12 1c8 3 16 11 19 18zm236-547c8-41 32-171 39-213 1-3 3-16 1-15-2 0-3-3-3-4h-3c-1 0-3 1-4 2-1 0-2 3-3 4-2 12-9 50-12 62-3 13-19 53-22 66-3 15-9 65-10 81 0 4 2 19 4 24 0 1 7 4 8 3l5-10zm228-249c3-4 15-22 17-26 2-7-11-14-13-20-3-6-6-31-5-37 0-20 17-21 20-33 1-2 1-11 1-12-2-4-11-5-15-5-2 1-6 5-9 5-5 0-11-5-16-4-7 0-7 6-11 8-1 1-3 2-4 3-1 0-30 48-33 53-2 5-7 21-7 27 1 9 5 18 5 27 2 14-2 28 3 41 4 8 10 15 13 23 1 7 0 28 2 31 1 1 5 2 7 2s9-6 10-8c5-6 5-31 7-40 5-19 17-22 28-35zm303-705c-3 5-2 25-2 31 5 3 14 3 16 2 5-2 16-11 18-15 3-5 4-25 5-31-7 0-35 9-37 13zm112 277v-3c-2-6-8-24-13-26-4-2-19-5-21-6-1-1-2-6-8-4-7 2-15 19-20 25-12 13-29 4-37 8-1 0-3 2-3 3 1 0 3 2 3 2 2 1 9 6 11 6 8 3 23 2 30 6 9 5 14 25 24 27 1 0 6 0 7-2 7-7 10-23 16-31 2-2 8-4 11-5zm46 72c0-1-1-2-2-2-1-1-37-13-41-14-13-3-15 3-25 4-3 0-7-2-11-2-2 0-10 3-12 5s-4 12-6 15c-3 3-14 5-16 7-3 3-4 17-8 18-5 1-17-6-20-2-1 2-3 11-3 13 1 5 5 10 7 15 1 4 0 9 1 13 1 2 7 9 9 10 7 4 16 4 22 8 13 9-13 28-3 47 2 4 9 5 10 4 9-5 11-56 30-69 7-6 18-6 25-12 5-3 17-18 21-23 4-7 6-16 10-23 3-5 12-8 12-12zm-416-322c4 1 8 16 14 18 3-20-16-46-36-47-5 0-14 7-8 10 3 3 15 1 18 6 1 1 2 4 1 5 0 2-10 15-12 15-4 1-9-1-15 1v5c2 6 7 12 10 18 1 3 2 14 5 16 2 1 9-2 11-3s10-6 11-8c3-3-3-31 1-36zm-1204 863c-1-1-4 0-5 1-17 6-11 9-20 22-1 2-4 3-5 5-3 5-3 15 1 19 1 1 4 4 6 4 2-1 9-9 11-11 5-10 9-24 11-35l1-5zm-1716-39c-8 12-16 25-23 38-1 3-7 19-7 22-1 3 5 7 1 15-7 14-17 26-23 40-2 4-4 17-4 21 0 2 3 6 4 7 4 2 23 8 25 4 6-8 2-32 3-42 1-5 18-7 19 0 1 4-5 15-3 21 3 1 6 9 10 6 3-1 6-13 12-14 9-1 7 10 11 15 1 1 6 3 8 3 5-7 10-14 12-20 1-4 1-14 1-17 0-2-1-5-1-6 1-6 8-14 10-3 2 10 7 22 7 32 0 13-13 9-18 25-3 9-7 31-8 40 0 17 26 27 15 44-6 9-16 15-22 24-5 7-7 16-12 24-5 7-12 12-17 18-5 7-8 15-14 22-5 7-13 11-19 18-4 6-8 16-6 22 3 9 14 34 19 43 1 2 3 4 5 5 22 11-1-34 21-35 23-1 35 41 51 34 2-1 7-8 7-10 1-5-4-24 2-27 4-2 7 4 8 5 4 3 9 3 13 6 9 8 7 15 25 16 7 0 19-7 26-9 5-1 21-2 24-6s1-12 4-16c8-12 60 7 61 9 8 12-23 11-30 13-4 2-11 7-14 10-4 5-6 11-9 17-9 14-24 27-26 45 0 2 0 3 1 5 2 7 7 14 10 22 6 15 9 32 15 47 1 3 4 5 4 8 2 8-6 25 1 30 12 8 26-21 38-23 2 0 13 1 15 1 1 1 2 4 2 5v12c-2 4-5 8-7 12s-4 14-6 17c-6 7-16 1-19 19-1 4-2 20 0 24 1 5 13 11 10 16 0 1-13 9-16 12-4 4-8 10-11 15 0 6-3 22-4 26-4 8-11 2-10 21l-1 16c-8 8-20-15-25-18-3-1-8-1-11-1-38-2-70-4-106 13-3 2-11 8-14 12-4 5-7 14-11 18-13 11-53 21-55 38 0 1 0 3 1 4s24 3 26 2c5-1 9-6 13-7 5-1 19-1 23 2 4 2 17 23 19 28 3 8-5 18-6 26-1 5 0 10-1 15 0 14-4 29-11 41-8 12-34 31-47 36-19 8-39 12-58 16-7 2-24 2-29 4-2 1-4 3-6 5-7 4-20 5-26 11-2 2-5 8-4 11 2 4 18 6 19 11 2 13-14 15-12 29 1 4 10 19 13 21 4 3 20 5 25 4 3-1 15-11 22-13 8-2 16-1 24-3 5-2 17-9 22-7s3 15 6 19c4 6 20 6 18 15-7 2-21 7-16 17 5 12 43-8 51-3 18 11 8 43 56 58 34 11 30-20 50-27 10-4 22-2 33-6 7-2 15-7 21-11 8-5 28-20 32-22h4v3c-10 14-21 30-33 43-10 10-38 29-44 37-2 2-2 5-2 7-1 4-2 14-4 17-8 11-46 2-57-1-9-2-18-7-28-9-7-2-14-3-21-3-10-2-62-8-67 0-2 4-3 24-6 29-8 12-34 1-40 6-4 2-5 16-7 20-3 9-9 20-14 28-6 9-21 19-30 24-7 4-15 6-21 10-10 7-19 17-27 26-2 2-3 5-5 7-11 8-27 16-39 21-11 5-22 7-33 10-3 1-10 4-12 6-4 4-7 14-2 19 8 7 22-8 37-1 13 6 12 33 27 31 13-2 8-24 17-31s22-9 32-14c6-3 12-8 19-12 2-1 7-4 10-4 33-6 49 3 79 8 3 0 7 0 10 1 13 6 23 20 37 26 2 1 9 5 12 3 4-2 21-19 23-24 8-14 3-30 15-43 3-3 13-9 16-11 4-1 10 0 15-1 15-2 29-11 45-8 25 2 28 10 48 18 12 5 25 6 37 11 10 4 21 16 34 14 3 0 12-5 15-7 4-4 6-9 9-13 10-11 28-7 41-6 11 2 30-6 42-7 16-1 34 1 50 2 6 5 15 15 24 14 6 0 13-5 19-7 23-6 62-4 84 4 2 0 14 6 16 8 4 5 7 8 16 8 13-1 28-14 40-19 17-6 21-3 42-14 4 3 20 9 25 7 7-3 12-22 19-28 9-8 33-8 41-20 2-3 12-42 11-45-1-4-8-4-11-4-19-1-40 2-58-2-5-1-10-7-14-10-5-3-11-4-17-7-4-2-6-5-10-6-9-3-28 1-33-3 8-4 26-13 34-14 10-2 34 2 40-6 4-6 3-15 7-21 1-1 2-2 2-4 1-8-17-6-13-13 1-2 14-7 16-8 9-1 18 2 28 1 2 0 16-6 17-7 4-5-3-8-4-12s14-11 17-13c10-4 35-28 39-37 9-23 20-71 23-96 1-11-5-37-12-46-6-7-19-17-27-22-5-3-18-7-21-10-4-5-17-12-23-13-7-2-13 4-21 3-14-3-35-15-50-1-6 5-17 28-23 29-2 0-15-5-17-7-9-2-23-18-20-27 3-10 22-8 28-15 2-3 13-28 14-33 3-12-8-54-17-62-1-1-3-2-4-3-8-8-6-18-19-24-7-4-13-9-19-15l-7-6c-7-3-25-5-31-7-3-1-14-8-17-10h13c12 2 25 4 37 7 15 4 29 11 44 15 3-1 3-4 2-7-1-2-16-20-19-25-10-16-17-34-15-53 0-6 6-19 9-24v-6c-4-6-12-12-17-18-1-3-2-5-4-8-3-4-8-8-10-13-7-14-6-27-17-40-8-8-19-16-28-23-8-7-24-7-33-12-3-1-6-5-7-8-2-6-1-14-3-20-4-15-12-17-12-36 0-10 0-22-2-32-3-10-9-16-10-28-3-28-1-57-5-85 0-4-2-10-4-13-7-11-17-20-25-31-7-9-12-21-17-32-3-10-30-21-39-27-4-3-13-9-15-13-4-5-4-13-10-16-18-6-33 15-48 21-13 5-46-5-58-12-2-1-14-9-14-11-3-5 11-6 14-5 8 1 22 10 30 9 15-1 28-28 40-33s41 5 51-5c1-2 3-8 2-11-1-10-21-10-27-16-5-4-1-15-15-15-10 0-24 11-30-2 1-2 13-7 16-8 11-2 31 3 46 1 32-6 33-49 50-59 22-11 33-31 40-54 4-12 6-26 12-37 5-11 14-20 21-29 6-8 11-17 13-24 1-4 2-12 1-16-3-15-15-32-31-35-33-8-79-9-111-18-4-1-9-7-13-9-10-5-39-1-50 3-7 3-14 8-21 12-2 1-5 3-8 4-7 2-15 1-23 3-10 2-19 10-29 12-3 1-11 2-10-4 1-1 1-3 2-5 1-1 14-4 16-5s23-16 23-16c6-12-15 0-22-6-4-16 31-11 43-15 3-1 20-13 21-16 7-11-31-5-35-4l-2-4c1-3 4-5 6-7 3-5 3-12 6-17 9-14 36-18 50-27s23-24 37-33c11-8 26-9 36-17 4-9-3-12-3-21 1-9 12-26 10-34-1-3-7-9-10-10-2-1-12-4-14-4-8 0-9 14-16 15-11 1-23-3-34-3-10 1-19 7-28 7-6 0-10-4-15-4-3 0-5 1-7 1-5 1-28 2-32 0s-7-10-11-12c-3-1-11 0-16 0-14-3-24-23-34-17-3 1-14 17-13 21 1 2 2 6 3 8l2 2c-1 7-9 9-12 15-4 7-2 17-6 24-6 9-29 1-32 6-4 6 11 22 6 29-5 8-14 5-16 6-2 9 15 20 19 28l-1 3c-4 5-19 2-26 4-5 1-8 3-13 3-1-4-4-7-8-8-7-2-9 7-7 12 1 3 7 7 5 11-3 3-9 2-10-1s0-15-11-11c-4 1-7 20-5 24 1 3 4 4 5 7 1 5-8 9 0 23 1 3 5 5 7 7 1 8-9 13-13 8l-1-3-12-5-3 1v30c7 6 27 0 29 12 0 4-5 9-8 10-2 1-4 2-5 3 1 2 2 1 4 1 4 1 5 6 3 10-3 5-14 7-13 15 1 5 16 10 12 17-2 4-8 5-11 3-4-2-1-6-9-4-12 2 4 19-3 24-4 4-16-8-20 3-8 20 3 15 4 21 1 3-1 9-2 11-4 4-12 4-17 9-1 0-30-3-35 3-2 2 0 8 1 10 2 3 9 6 13 9 5 6 8 14 13 20 6 7 22 18 31 15 15-5 64-53 68-53l4 4c-1 2-7 7-9 10-4 5-8 12-12 18-6 11-16 11-23 19-4 4 0 10-7 15zm55-1258c2 10 12 14 15 23 2 10 3 21 6 31 0 1 1 3 2 3 1 1 8 3 10 3 3-1 5-10 5-13 0-2-1-7-2-8-2-3-4-5-6-7l-9-15c-3-6-3-12-5-18-2-2-8-14-9-15s-3-1-4 0c-3 3-3 13-3 16zm-731 1696c5-5 3-28-1-34-7-3-17 1-23 6 1 2 0 6 0 8 3 4 9 6 12 9s3 8 6 11h6zm1262-1172c19 26-24 56-6 72 6 0 8 0 11-6 5-13 6-28 11-41 3-6 9-10 11-16s0-14 1-21 5-13 6-20c-22-18-16-24-19-47l-3-3c-10 0-18 12-17 22 1 2 3 4 4 7 0 4-2 17-3 21-8 9-13 3-20 8-11 6 0 29 11 29 4-1 9-6 13-5zm-223 211c0-1-1-3-2-3-2-2-16-3-19-1-6 3-11 15-11 22 1 4 11 1 14 4 2 2 2 12 4 14 5 3 19 0 25 2 2 1 4 6 6 7 6 3 18 3 17-7-1-7-27-10-31-21-2-3 0-9-1-12 0-2-1-4-2-5zm-388 127c-1-2 0-4 1-6 0-1 12-13 13-18 1-4 0-21-1-25-1-3-5-4-8-4-10 7-19 17-30 23-6 2-26 4-28 8-2 5-1 21-2 22s-5 5-6 5c-13 2-17-10-22-12s-14 2-16 7c-1 3-6 35-5 36 1 8 7 12 9 19 3 12-19 14-15 25 0 2 2 3 3 4s3 1 5 2c13 1 10-4 19-10 3-2 10-4 12-6 5-5 4-22 15-19 2 1 6 6 8 7 8 1 6-5 10-8 3-3 9-3 12-6 2-3 2-10 4-14 1-2 4-4 5-6 2-4-1-7 3-11 1-2 21 1 26 0 2-1 8-7 4-10-1-1-6-1-8-1s-5-1-8-2zm-13 233c1 7 2 17-3 22-2 3-9 7-8 10 0 2 6 6 7 5 3-1 23-24 25-27 1-4 3-15 3-18 0-2-1-5-2-6-2-2-7-2-9-4-5-3-9-9-13-14-2-2-7-5-9-8s-6-14-6-17c-1-12 4-24 3-36 0-2-5-11-6-13-3-2-9 3-10 5-6 11 6 14-1 27-7 3-16-4-24-4-2 0-6 3-8 3-5 1-12-2-16 3 0 1-1 3-1 4 2 24 15 13 22 16 2 2 9 9 10 12s-2 12-1 16c2 9 6 21 15 24 4 1 16 5 20 4 2 0 5-6 7-7 1 0 4 2 5 3zm-12 158c-3-3-17-10-20-13-3-4-9-17-11-21l-4-4c-1 0-3-1-4-1s-2 3-3 3c-1 1-6 3-7 4s-4 6-4 7-1 4 0 5c0 1 3 6 4 8 2 3 11 11 13 14 1 1 2 5 1 6 0 1-3 5-5 6-4 2-17 6-21 8-1 1-4 4-5 6 0 1 1 5 2 5 3 2 13 3 16 3 6-1 24-9 30-10 4-1 17 1 21 0 1 0 4-2 4-3 1-2 3-10 2-12 0-3-6-10-9-11zm12 184c2-4 10-16 8-20-1-3-14 0-17 0-2 1-5 4-7 6-16 16-16 30-26 49-4 7-10 13-14 20 0 1-1 5-1 7 0 1 1 6 2 7 4 5 25-1 29-6 5-8 8-26 13-35 4-10 9-19 13-28zm-98-3c1-2 2-4 4-5 5-3 14-4 18-8 10-8-3-23-6-32-1-5 0-18-3-20-3-3-22 5-25 7-3 3-16 28-13 30 1 2 8 0 9-1 3-3 4-13 10-13 1 0 4 2 5 4 0 2-1 10-2 12l-3 9-4 8c0 5 4 13 10 9zm185 300c-7-8-21 2-26 7-5 4-8 11-13 16s-21 15-24 21c-1 2-2 10-1 12s9 9 11 10h4c19-2 40-32 47-49 1-4 2-13 2-17zm-48 266c1-2 28-22 32-25l6-3 1-3c-5-4-11-6-15-10s-8-17-12-20c-2-2-9-1-12-1-2 1-8 3-10 5-5 7-10 30-8 38 1 3 10 16 13 18 1 1 4 2 5 1zm313 588c-3 1-8 4-9 7-5 13 30 18 37 17 5-1 19-11 22-15 1-1 2-5 1-6-1-10-44-5-51-3zm949-323c-3 1-8 10-9 13-4 16 26 17 37 9 3-3 16-17 18-20 3-6 2-15-4-18-2-1-8-3-10-2-6 2-28 14-32 18zm-166 223c1-1-1-5-1-5-1-2-4-6-6-8-9-8-23-5-29-10-3-2-4-10-6-12-8-8-30-3-39 1-10 5-5 16 2 20 8 4 19 5 28 9 2 1 4 4 6 4 2 1 8 2 10 2 4-1 9-6 12-6 5-1 21 5 23 5zm-1297-727c2-4 25 7 30 6 13 0 17-21 27-28 8-1 26 1 33-3 13-23-7-20-8-27 0-3 8-22 10-26l3-1c12 4 6 18 10 28h3c7-10 10-58-4-63-4-2-24-3-32-6l2-4c6-5 22-9 19-21-1-6-11-16-13-22-7-25-1-63-26-79-8-5-25-10-34-11l-2 3c-4 0-7-1-10-1-9 1-17 4-25 6-12 4-18-4-37 6-9 4-6 9-21 6l-2-4c-2-23 25-18 33-25l1-4c-4-6-23-12-30-14s-19-3-25 0c-4 3-11 32-14 38-2 4-8 11-11 14-4 1-8 0-11-2-5-20 18-29 16-46-1-2-2-7-3-8-14-6-28 10-30 10-4 1-11-5-15-5-9-2-20 11-27-1h-5c-8 10-18 24-22 36-2 6-2 13-4 18-3 5-14 18-18 22-14 13-25 0-37 9-14 38 49 24 70 34 0 5-1 9-5 13-16 20-20 8-39 13-3 1-5 4-8 5-6 3-20 8-24 12-1 1-3 6-2 8s9 6 11 9l-1 6-2 3c-18-1-27-10-43-13-18-4-26 11-33 5-10-9 1-20-18-27-9-4-54-18-61-15-6 2-5 7-13 6l-4-4-2-6c-9 3-23 17-19 28 3 2 12 3 14 6 6 10 7 41-2 50l-1 6c9 10 26 4 32 11 0 3-3 13-6 15-11 9-26 0-35 6-4 7-5 15-9 22-11 16-25 14-29 18-7 6-1 23 3 29 3 4 10 7 12 12 2 3 1 10 3 12 10 8 28-3 36 1 2 10-4 19-2 26 2 9 55 7 66 11 4 1 9 11 11 14l-1 4c-22 15-32-8-51 6-38 29-18 51-31 61-21 16-63 11-64 30 1 2 3 5 4 6 10 5 24-1 34 0 8 1 24 8 31 7 36-4 47-33 84 0l1 4c-4 2-8 1-13 0-1 0-37 8-44 9-13 1-27 1-40-1-9-1-17-5-26-7-10 4-16 12-25 18-2 2-14 6-14 7l-4 6c-4 7 8 25-11 26-24 1-26-13-36-17-9-3-21 2-27 9-5 6-9 11-8 19 10 7 35 10 48 15l4 5v2c-14 13-51 12-56 29-1 5-1 11 2 15 1 1 6 2 8 4 9 8 3 12 19 14 3 1 16 2 18 1 5-2 14-6 20-3l1 4c-8 11-48 14-49 32l4 3c8-1 17-5 26-5 15 0 21 5 37 1l6 2 2 5c-8 11-53 17-43 36 20 5 27-3 45-5 9 5 5 7 9 9 12 9 21-2 32-2 20-1 37 7 61 3 12-2 20-10 30-15 7-3 13-2 20-8 1 0 6-16 8-19 3-1 8-1 11 1 2 1 2 6 4 8 11 8 29 1 39-5 8-4 8-11 19-14 12-4 24 0 34-11 6-7 7-18 20-17 8 0 54 10 56 10 2-1 6-2 8-5h5c5 4 0 6 10 8 5-4 8-11 13-15h5c4 2 6 7 10 10 12 7 32 5 42-5 5-4 10-24 13-31 3-6 8-12 10-18 6-14 9-29 16-43 6-13 34-52 35-60 8-37-3-51-2-79 1-12 8-23 10-35 1-8-1-16-1-24 0-11 3-22 3-33 0-23-20-15-11-46 4-3 17-7 17-8 2-2-1-14 2-15zm-932-2677c-9 4-15-1-20 3 3 15 16 11 27 14-1 5-4 5-7 6-10 5-6 12-7 20-10 2-19-2-27 5-2 2-4 9-6 10-5 1-29 0-35 0-6-1-20-3-23-8-1 0 0-8-2-10-1-1-5-1-7 0-7 4-5 19-7 26-2 6-10 9-9 16 1 0 2 1 3 2 3 2 61 19 72 24 4 2 7 7 12 9 5 3 25 8 31 9 5 0 10-3 15-3 6 5 3 9 7 15 1 2 3 3 4 5 5 6 8 13 13 19 3 3 9 7 11 11 4 6 4 15 6 22 1 2 14 32 14 32 3 4 16 13 20 16 5 3 17 6 20 9 4 4 7 17 11 21 7 9 38 37 50 41 24 7 70 11 94 9 8 0 22-14 26-20 2-5 2-11 4-15 1-1 3-3 5-3 7-2 11 4 18 5s15-3 23-3c14 1 27 6 41 7 13 1 27 2 40 1 27-3 43-19 66-30 17-8 36-1 54-5 8-1 24-13 30-14 2 0 6 6 8 8 3 3 8 5 12 8l5 5c7 3 10-8 14-11 12-8 20-1 28-3 7-2 24-15 27-21 2-7 1-15 4-21 5-8 28-8 36-11 6-1 12-3 17-6 4-2 14-6 17-10 4-6-6-18 16-14h2c3-2 3-5 3-6-2-4-11-12-14-22 8-7 14 5 17 8 6 1 21 0 25-4 2-2 3-11 2-13 0-4-8-9-8-12-1-9 6-22 6-30 0-3-5-9-5-12 0-11 23-15 19-29-1-5-13-25-16-28-2-3-7-3-10-5l-14-21c-3-7 1-14 0-21-7-12-19 2-35-3l-3-3c3-16 10-12 18-21 7-7 13-37 5-43-6-1-18 3-19-5-1-2-1-12 0-14 1-3 8-5 10-8 4-5 4-13 8-18 8-10 24-12 35-17l1-3c-10-9-27-5-37 0-4 2-7 6-11 8-6 2-12 1-17 2-6 2-11 16-17 11-2-2-17-27-18-30-3-7 5-15 6-21 0-6-5-35-11-38-5-3-13-1-19-3-7-2-10-12-21-6-4 7-8 15-11 22-4 12-5 27-10 39-1 2-12 13-14 14-1 0-2 1-3 1s-4-1-5-1c-5-2-11-3-16-6-7-4 3-24-17-23-11 1-28 33-43 37-4 1-11-5-14-7-5-15-6-31-11-45-2-5-12-21-17-23-1 0-6 0-8 1-4 1-11 5-12 9-2 9-2 22-1 30 0 10 5 20 4 29-1 15-6 31-10 46-3 2-7 2-10 0-3-6 3-41 3-50 1-18-5-16-8-29-5-16 3-29-10-45-2-1-10-8-12-9-8-3-11 9-17 10-9 3-22-6-32 1-2 1-3 6-5 9s-9 6-10 9c-5 11-3 25-7 36-2 5-11 7-15 4-3-2-9-10-10-13-1-5 2-16 2-21-1-8-6-15-7-23-1-18 9-28-4-44-1-1-3-2-4-3-1 0-12-3-13-2-6 2-7 9-13 10-1 5 0 10-2 14-5 20-10 43-18 62-2 5-21 28-26 28-2 0-10-2-12-2-1-1-3-4-3-5 0-4 6-24 7-29-3-2-5-2-7-2-5 2-27 16-31 19-3 3-8 16-9 17-3 2-7 4-9 7-4 5-12 31-15 33-1 1-3 1-4 2l-3-3c-1-2-1-5-1-7 2-9 9-22 11-29 2-10 0-22 1-32 1-7 5-15 5-22 1-7-9-13-10-20 0-3 0-12 1-14l3-3h3c3 4 11 18 18 14 2-2 14-22 16-25 2-5 7-27 8-32 0-5-9-12-10-17-5-15-5-31-10-46-3-9-19-18-23-26-2-4 0-14-2-18-2-5-13-18-17-22-10-9-30-16-42-6-1 1-2 4-2 6-1 17 18 10 27 17 3 3 7 17 8 22l-2 3c-8 1-27-15-33-5v5c0 3 2 10 4 12 4 6 19 19 21 25 1 3-5 10-6 13-2 6-2 13-4 18 0 2-2 6-4 6-1 0-7-5-9-6-6-7 3-27 0-36 0-1-2-3-3-4h-5c-1-1-19-9-19-10-4-4-2-17-6-25-2-4-7-10-10-14-10 4-42 18-45 24-2 4-3 9-4 13 3 11-8-2-17 11 0 3 2 12 4 15 2 4 18 19 21 20 3 0 7-1 10 0 2 0 7 5 7 6 2 7-8 7-12 6-3-1-9-5-11-5-1 0-5 1-5 2 0 3 11 8 11 9 0 2-2 5-4 6-2 0-14-4-16-6-3-3-4-11-5-15-1-1-14-27-15-27-6-5-17 1-18 9-1 5 2 10 2 15-5 2-5 12-9 14-4 3-16-15-18-16-8-2-24 2-21 13 5 5 26 17 28 22 1 3 0 13 3 15s15 1 19 2c8 0 16 2 24 2 6 0 13-3 19-3 7 1 27 7 34 10 6 2 10 8 16 11 5 3 12 3 17 6 9 5 5 16 9 20 2 3 9 3 11 5 4 3 7 12 10 16 1 2 4 4 5 6l-1 3c-20 6-43 7-62 16-5 3-8 9-5 14 2 2 16 13 19 15 7 4 23 3 31 4-2 8-15 28-20 31-7 2-33-22-40-25-6-3-15-3-22-5-4-2-9-5-14-7-27-6-57-8-84-15-6-2-22-15-27-9-3 3-8 21-8 25-2 17 13 15 15 22 8-1 17-3 25-3 26-1 41 16 61 28 5 3 18 7 21 10 2 2 3 10 2 12-1 4-7 8-9 11-1 1-2 6-2 8 0 11 5 22 6 32 0 2 0 9 1 10 0 1 1 2 2 3 7 2 12-4 19-3-1 11-13 16-7 28zm-1753 6835c-17 1-19-10-31-15-7-3-17-3-23-7-4-2-7-11-11-14-5-4-16-2-21 1-5 4-6 14-5 19 1 3 4 13 7 15 6 4 49 28 55 27 4 0 13-9 17-11 5-3 23-3 19-11-1-1-2-4-7-4z"/>
 </g>
</svg>
